<?xml version="1.0" encoding="UTF-8" standalone="no"?>
<svg
   xmlns:dc="http://purl.org/dc/elements/1.1/"
   xmlns:cc="http://creativecommons.org/ns#"
   xmlns:rdf="http://www.w3.org/1999/02/22-rdf-syntax-ns#"
   xmlns:svg="http://www.w3.org/2000/svg"
   xmlns="http://www.w3.org/2000/svg"
   id="svg39500"
   version="1.1"
   viewBox="0 0 105.83333 52.916668"
   height="200"
   width="400">
  <defs
     id="defs39494">
    <clipPath
       id="clip1-7">
      <path
         id="path2-6"
         d="M 3,15 H 14 V 29.882812 H 3 Z m 0,0" />
    </clipPath>
    <clipPath
       id="clip2-9">
      <path
         id="path5"
         d="M 38.671875,7.03125 H 54 V 17.988281 H 38.671875 Z m 0,0" />
    </clipPath>
    <clipPath
       id="clip3-5">
      <path
         id="path8-1"
         d="m 38,6 h 0.367188 V 17 H 38 Z m 0,0" />
    </clipPath>
    <clipPath
       id="clip4-1">
      <path
         id="path11"
         d="M 19,5.15625 H 38 V 30 H 19 Z m 0,0" />
    </clipPath>
    <clipPath
       id="clip5-5">
      <path
         id="path14-5"
         d="m 13,30 h 31 v 7 H 13 Z m 0,0" />
    </clipPath>
    <clipPath
       id="clip6-9">
      <path
         id="path17"
         d="m 13.074219,30.214844 0.273437,7.804687 30.84375,-1.078125 -0.269531,-7.804687 z m 0,0" />
    </clipPath>
    <clipPath
       id="clip7-0">
      <path
         id="path20-6"
         d="M 6,37.394531 H 51 V 48 H 6 Z m 0,0" />
    </clipPath>
    <clipPath
       id="clip8-6">
      <path
         id="path23"
         d="M 6,37.394531 H 51 V 47 H 6 Z m 0,0" />
    </clipPath>
    <filter
       id="filter13821"
       style="color-interpolation-filters:sRGB">
      <feFlood
         id="feFlood13823"
         result="flood"
         flood-color="rgb(235,235,235)"
         flood-opacity="0.211765" />
      <feComposite
         id="feComposite13825"
         result="composite1"
         operator="in"
         in2="flood"
         in="SourceGraphic" />
      <feGaussianBlur
         id="feGaussianBlur13827"
         result="blur"
         stdDeviation="0"
         in="composite1" />
      <feOffset
         id="feOffset13829"
         result="offset"
         dy="6.5"
         dx="10.7" />
      <feComposite
         id="feComposite13831"
         result="composite2"
         operator="over"
         in2="offset"
         in="SourceGraphic" />
    </filter>
    <filter
       id="filter44154"
       style="color-interpolation-filters:sRGB">
      <feFlood
         id="feFlood44144"
         result="flood"
         flood-color="rgb(235,235,235)"
         flood-opacity="0.211765" />
      <feComposite
         id="feComposite44146"
         result="composite1"
         operator="in"
         in2="flood"
         in="SourceGraphic" />
      <feGaussianBlur
         id="feGaussianBlur44148"
         result="blur"
         stdDeviation="0"
         in="composite1" />
      <feOffset
         id="feOffset44150"
         result="offset"
         dy="6.5"
         dx="10.7" />
      <feComposite
         id="feComposite44152"
         result="composite2"
         operator="over"
         in2="offset"
         in="SourceGraphic" />
    </filter>
    <filter
       id="filter8080"
       style="color-interpolation-filters:sRGB">
      <feFlood
         id="feFlood8082"
         result="flood"
         flood-color="rgb(0,0,0)"
         flood-opacity="0.14902" />
      <feComposite
         id="feComposite8084"
         result="composite1"
         operator="in"
         in2="SourceGraphic"
         in="flood" />
      <feGaussianBlur
         id="feGaussianBlur8086"
         result="blur"
         stdDeviation="2.6"
         in="composite1" />
      <feOffset
         id="feOffset8088"
         result="offset"
         dy="8.3"
         dx="8.6" />
      <feComposite
         id="feComposite8090"
         result="composite2"
         operator="over"
         in2="offset"
         in="SourceGraphic" />
    </filter>
    <clipPath
       id="clipPath35648"
       clipPathUnits="userSpaceOnUse">
      <path
         id="path35646"
         d="m 164.625,6.017 h 36.527 v 18.786 h -36.527 z" />
    </clipPath>
  </defs>
  <metadata
     id="metadata39497">
    <rdf:RDF>
      <cc:Work
         rdf:about="">
        <dc:format>image/svg+xml</dc:format>
        <dc:type
           rdf:resource="http://purl.org/dc/dcmitype/StillImage" />
        <dc:title></dc:title>
      </cc:Work>
    </rdf:RDF>
  </metadata>
  <g
     transform="translate(0,-244.08332)"
     id="layer1">
    <g
       id="g35642"
       transform="matrix(2.4526842,0,0,-2.4526842,-395.65107,308.33752)"
       style="display:inline">
      <g
         clip-path="url(#clipPath35648)"
         id="g35644">
        <g
           transform="translate(174.1625,-9.2375)"
           id="g35650">
          <path
             id="path35652"
             style="fill:#00ade7;fill-opacity:1;fill-rule:nonzero;stroke:none"
             d="m 0,0 0.308,-0.996 h 0.131 l 0.139,0.538 c 0.013,0.048 0.025,0.096 0.036,0.144 0.023,0.096 0.029,0.123 0.035,0.177 0.011,-0.05 0.021,-0.1 0.033,-0.148 0.015,-0.062 0.034,-0.123 0.051,-0.183 L 0.888,-0.996 H 1.013 L 1.309,0 H 1.176 L 1.013,-0.597 C 0.99,-0.684 0.965,-0.772 0.947,-0.863 0.932,-0.797 0.915,-0.733 0.897,-0.67 0.88,-0.605 0.865,-0.541 0.847,-0.477 L 0.712,0 H 0.587 L 0.439,-0.551 C 0.427,-0.599 0.416,-0.649 0.404,-0.697 0.393,-0.749 0.383,-0.801 0.374,-0.853 0.354,-0.77 0.331,-0.687 0.308,-0.605 L 0.139,0 Z m 1.44,0 0.308,-0.996 h 0.131 l 0.139,0.538 c 0.013,0.048 0.025,0.096 0.036,0.144 0.023,0.096 0.029,0.123 0.035,0.177 0.011,-0.05 0.021,-0.1 0.033,-0.148 0.015,-0.062 0.034,-0.123 0.052,-0.183 L 2.328,-0.996 H 2.453 L 2.749,0 H 2.616 L 2.453,-0.597 C 2.43,-0.684 2.405,-0.772 2.387,-0.863 2.372,-0.797 2.355,-0.733 2.337,-0.67 2.32,-0.605 2.304,-0.541 2.287,-0.477 L 2.152,0 H 2.027 L 1.879,-0.551 C 1.868,-0.599 1.856,-0.649 1.844,-0.697 1.833,-0.749 1.823,-0.801 1.814,-0.853 1.794,-0.77 1.771,-0.687 1.748,-0.605 L 1.579,0 Z m 1.44,0 0.308,-0.996 h 0.131 l 0.139,0.538 c 0.013,0.048 0.025,0.096 0.036,0.144 0.023,0.096 0.029,0.123 0.035,0.177 0.012,-0.05 0.021,-0.1 0.033,-0.148 0.015,-0.062 0.034,-0.123 0.052,-0.183 L 3.768,-0.996 H 3.893 L 4.189,0 H 4.057 L 3.893,-0.597 C 3.87,-0.684 3.845,-0.772 3.828,-0.863 3.812,-0.797 3.795,-0.733 3.777,-0.67 3.76,-0.605 3.745,-0.541 3.727,-0.477 L 3.593,0 H 3.467 L 3.319,-0.551 C 3.308,-0.599 3.296,-0.649 3.285,-0.697 3.273,-0.749 3.263,-0.801 3.254,-0.853 3.235,-0.77 3.211,-0.687 3.188,-0.605 L 3.019,0 Z m 1.46,-0.996 h 0.156 v 0.192 H 4.34 Z m 0.651,0 h 0.127 v 0.995 H 4.991 Z m 0,1.185 H 5.118 V 0.362 H 4.991 Z M 5.523,0.364 H 5.4 v -1.36 h 0.123 v 0.516 c 0,0.095 -10e-4,0.195 0.056,0.278 0.073,0.108 0.187,0.111 0.23,0.111 0.125,0 0.181,-0.057 0.204,-0.107 0.025,-0.056 0.027,-0.122 0.025,-0.243 v -0.555 h 0.125 v 0.63 c 0,0.075 0,0.166 -0.033,0.235 -0.01,0.017 -0.035,0.066 -0.083,0.096 -0.034,0.023 -0.106,0.056 -0.208,0.056 -0.061,0 -0.21,-0.008 -0.316,-0.146 z M 6.576,0 H 6.451 v -0.996 h 0.125 v 0.497 c 0.002,0.135 0.003,0.193 0.03,0.256 l 0.027,0.047 c 0.008,0.011 0.047,0.055 0.095,0.077 0.054,0.023 0.109,0.023 0.131,0.021 V 0.019 C 6.745,0.021 6.672,-0.021 6.639,-0.05 6.61,-0.075 6.578,-0.121 6.576,-0.125 Z M 6.977,-0.481 H 7.454 V -0.37 H 6.977 Z M 8.515,-0.52 c 0,0.044 0.013,0.314 -0.162,0.455 C 8.255,0.015 8.139,0.019 8.095,0.019 7.906,0.019 7.802,-0.075 7.756,-0.137 7.71,-0.196 7.652,-0.314 7.652,-0.495 c 0,-0.038 0.002,-0.252 0.118,-0.387 0.109,-0.127 0.271,-0.135 0.323,-0.135 0.191,0 0.351,0.091 0.404,0.281 L 8.37,-0.712 C 8.353,-0.782 8.32,-0.828 8.261,-0.867 8.187,-0.911 8.126,-0.911 8.091,-0.911 c -0.063,0 -0.102,0.012 -0.127,0.023 -0.05,0.021 -0.085,0.058 -0.096,0.071 -0.095,0.108 -0.093,0.259 -0.095,0.297 z m -0.736,0.104 c 0.006,0.044 0.012,0.073 0.017,0.09 0.012,0.045 0.029,0.078 0.039,0.093 0.021,0.038 0.042,0.064 0.056,0.075 0.075,0.069 0.168,0.073 0.2,0.073 0.197,0 0.295,-0.15 0.293,-0.331 z M 8.878,0 H 8.753 v -0.996 h 0.125 v 0.497 c 0.002,0.135 0.004,0.193 0.031,0.256 l 0.027,0.047 c 0.007,0.011 0.046,0.055 0.094,0.077 0.054,0.023 0.11,0.023 0.131,0.021 V 0.019 C 9.047,0.021 8.974,-0.021 8.941,-0.05 8.912,-0.075 8.88,-0.121 8.878,-0.125 Z M 9.32,-0.996 h 0.121 v 0.133 c 0.06,-0.067 0.112,-0.115 0.2,-0.138 0.048,-0.012 0.089,-0.012 0.11,-0.012 0.077,0 0.127,0.014 0.158,0.025 0.104,0.037 0.16,0.114 0.179,0.144 0.065,0.103 0.085,0.222 0.085,0.34 0,0.138 -0.029,0.286 -0.127,0.394 -0.104,0.116 -0.231,0.121 -0.289,0.121 -0.183,0 -0.272,-0.1 -0.316,-0.153 V 0.364 H 9.32 Z m 0.115,0.482 c -0.004,0.202 0.058,0.308 0.135,0.364 0.069,0.054 0.146,0.058 0.177,0.058 0.066,0 0.106,-0.018 0.129,-0.029 0.016,-0.01 0.052,-0.031 0.085,-0.072 0.092,-0.113 0.089,-0.275 0.089,-0.311 0,-0.168 -0.047,-0.26 -0.095,-0.318 -0.056,-0.066 -0.119,-0.091 -0.208,-0.091 -0.087,0 -0.137,0.025 -0.169,0.046 -0.039,0.027 -0.064,0.06 -0.073,0.074 -0.035,0.052 -0.066,0.138 -0.07,0.279 m 1.077,0.212 c 0.004,0.056 0.014,0.094 0.026,0.115 l 0.032,0.042 c 0.066,0.062 0.162,0.06 0.185,0.06 0.02,0 0.062,0 0.112,-0.015 0.05,-0.016 0.118,-0.054 0.118,-0.177 0,-0.041 -0.006,-0.056 -0.02,-0.072 -0.031,-0.034 -0.09,-0.042 -0.185,-0.061 l -0.113,-0.019 c -0.106,-0.024 -0.218,-0.045 -0.281,-0.147 -0.037,-0.06 -0.037,-0.125 -0.037,-0.148 -0.002,-0.187 0.125,-0.252 0.192,-0.273 0.041,-0.014 0.077,-0.018 0.122,-0.018 0.031,0 0.181,0.002 0.275,0.093 0.039,0.034 0.047,0.061 0.05,0.084 0,-0.011 -0.007,-0.094 0.05,-0.134 0.043,-0.029 0.116,-0.027 0.164,-0.027 v 0.104 c -0.016,0 -0.075,-0.002 -0.093,0.055 -0.009,0.027 -0.007,0.054 -0.009,0.112 v 0.385 c 0,0.091 0.004,0.187 -0.058,0.26 -0.086,0.102 -0.277,0.098 -0.293,0.098 -0.042,0 -0.242,0.004 -0.327,-0.157 C 10.395,-0.191 10.386,-0.246 10.38,-0.3 Z m 0.322,-0.193 c 0.052,0.012 0.104,0.023 0.154,0.041 v -0.07 c 0.002,-0.144 0.004,-0.267 -0.14,-0.346 -0.073,-0.041 -0.143,-0.045 -0.172,-0.045 -0.083,0 -0.158,0.033 -0.19,0.11 -0.014,0.033 -0.016,0.065 -0.016,0.079 0,0.042 0.014,0.125 0.118,0.171 0.036,0.016 0.075,0.025 0.158,0.043 z m 1.328,0.208 c -0.014,0.073 -0.031,0.108 -0.051,0.141 -0.094,0.156 -0.263,0.165 -0.319,0.165 -0.108,0 -0.202,-0.033 -0.281,-0.108 -0.15,-0.142 -0.154,-0.348 -0.154,-0.41 0,-0.177 0.058,-0.375 0.227,-0.468 0.087,-0.046 0.166,-0.046 0.202,-0.046 0.152,0 0.239,0.065 0.283,0.11 0.072,0.073 0.1,0.179 0.108,0.206 l -0.123,0.023 c -0.023,-0.096 -0.066,-0.181 -0.164,-0.218 -0.046,-0.017 -0.087,-0.019 -0.104,-0.019 -0.025,0 -0.087,0.002 -0.148,0.041 -0.029,0.019 -0.058,0.048 -0.077,0.075 -0.075,0.108 -0.077,0.26 -0.077,0.291 0,0.148 0.042,0.248 0.075,0.298 0.075,0.114 0.181,0.123 0.231,0.123 0.127,0 0.193,-0.081 0.216,-0.121 0.013,-0.019 0.027,-0.048 0.034,-0.1 z m 0.301,0.651 H 12.34 v -1.36 h 0.123 v 0.516 c 0,0.095 -0.002,0.195 0.056,0.278 0.073,0.108 0.187,0.111 0.229,0.111 0.125,0 0.181,-0.057 0.204,-0.107 0.025,-0.056 0.027,-0.122 0.025,-0.243 v -0.555 h 0.125 v 0.63 c 0,0.075 0,0.166 -0.032,0.235 -0.01,0.017 -0.035,0.066 -0.083,0.096 -0.035,0.023 -0.106,0.056 -0.208,0.056 -0.062,0 -0.21,-0.008 -0.316,-0.146 z m 1.738,-0.884 c 0,0.044 0.013,0.314 -0.162,0.455 -0.098,0.08 -0.213,0.084 -0.258,0.084 -0.189,0 -0.293,-0.094 -0.339,-0.156 -0.046,-0.059 -0.103,-0.177 -0.103,-0.358 0,-0.038 10e-4,-0.252 0.117,-0.387 0.109,-0.127 0.271,-0.135 0.323,-0.135 0.191,0 0.351,0.091 0.404,0.281 l -0.126,0.024 c -0.018,-0.07 -0.05,-0.116 -0.11,-0.155 -0.073,-0.044 -0.135,-0.044 -0.17,-0.044 -0.063,0 -0.102,0.012 -0.127,0.023 -0.05,0.021 -0.085,0.058 -0.096,0.071 -0.095,0.108 -0.092,0.259 -0.095,0.297 z m -0.736,0.104 c 0.006,0.044 0.012,0.073 0.018,0.09 0.011,0.045 0.029,0.078 0.038,0.093 0.021,0.038 0.042,0.064 0.056,0.075 0.075,0.069 0.168,0.073 0.2,0.073 0.197,0 0.295,-0.15 0.293,-0.331 z M 14.564,0 h -0.125 v -0.996 h 0.125 v 0.497 c 0.002,0.135 0.004,0.193 0.031,0.256 l 0.027,0.047 c 0.007,0.011 0.046,0.055 0.094,0.077 0.054,0.023 0.11,0.023 0.131,0.021 v 0.117 c -0.114,0.002 -0.187,-0.04 -0.22,-0.069 -0.029,-0.025 -0.061,-0.071 -0.063,-0.075 z m 0.402,-0.481 h 0.477 V -0.37 H 14.966 Z M 15.817,0 h -0.124 v -0.996 h 0.124 v 0.497 c 0.002,0.135 0.004,0.193 0.031,0.256 l 0.027,0.047 c 0.008,0.011 0.046,0.055 0.095,0.077 0.053,0.023 0.109,0.023 0.13,0.021 v 0.117 c -0.113,0.002 -0.186,-0.04 -0.219,-0.069 -0.029,-0.025 -0.062,-0.071 -0.064,-0.075 z m 1.213,-0.52 c 0,0.044 0.013,0.314 -0.162,0.455 -0.098,0.08 -0.214,0.084 -0.258,0.084 -0.189,0 -0.293,-0.094 -0.339,-0.156 -0.046,-0.059 -0.104,-0.177 -0.104,-0.358 0,-0.038 0.002,-0.252 0.117,-0.387 0.11,-0.127 0.272,-0.135 0.324,-0.135 0.191,0 0.35,0.091 0.404,0.281 l -0.127,0.024 c -0.017,-0.07 -0.05,-0.116 -0.109,-0.155 -0.074,-0.044 -0.135,-0.044 -0.17,-0.044 -0.063,0 -0.102,0.012 -0.127,0.023 -0.05,0.021 -0.085,0.058 -0.096,0.071 -0.095,0.108 -0.093,0.259 -0.095,0.297 z m -0.736,0.104 c 0.006,0.044 0.012,0.073 0.017,0.09 0.012,0.045 0.029,0.078 0.039,0.093 0.021,0.038 0.042,0.064 0.056,0.075 0.075,0.069 0.167,0.073 0.2,0.073 0.197,0 0.295,-0.15 0.293,-0.331 z m 0.968,-0.58 h 0.127 v 0.995 h -0.127 z m 0,1.185 h 0.127 v 0.173 h -0.127 z m 0.353,-0.88 c 0.014,-0.079 0.025,-0.116 0.043,-0.149 0.086,-0.175 0.284,-0.175 0.334,-0.175 0.187,0 0.278,0.075 0.318,0.15 0.023,0.043 0.031,0.089 0.031,0.135 0,0.054 -0.01,0.087 -0.016,0.106 -0.03,0.087 -0.09,0.131 -0.171,0.164 -0.032,0.013 -0.065,0.023 -0.098,0.033 l -0.077,0.021 c -0.056,0.015 -0.114,0.03 -0.154,0.079 -0.023,0.027 -0.031,0.054 -0.031,0.088 0,0.033 0.008,0.064 0.027,0.091 0.025,0.032 0.073,0.073 0.171,0.073 0.031,0 0.143,-0.002 0.189,-0.104 0.018,-0.039 0.021,-0.079 0.021,-0.093 l 0.123,0.016 c -10e-4,0.033 -0.011,0.138 -0.096,0.21 -0.083,0.069 -0.206,0.071 -0.231,0.071 -0.167,0 -0.327,-0.077 -0.327,-0.268 0,-0.021 0.002,-0.067 0.025,-0.117 0.044,-0.102 0.133,-0.129 0.229,-0.158 l 0.077,-0.019 c 0.067,-0.02 0.143,-0.039 0.187,-0.099 0.021,-0.028 0.031,-0.059 0.031,-0.096 0,-0.079 -0.039,-0.113 -0.064,-0.133 -0.031,-0.023 -0.077,-0.046 -0.16,-0.046 -0.217,0 -0.244,0.15 -0.256,0.233 z m 1.795,0.171 c 0,0.044 0.014,0.314 -0.161,0.455 -0.098,0.08 -0.214,0.084 -0.258,0.084 -0.189,0 -0.293,-0.094 -0.339,-0.156 -0.046,-0.059 -0.104,-0.177 -0.104,-0.358 0,-0.038 0.002,-0.252 0.117,-0.387 0.11,-0.127 0.272,-0.135 0.324,-0.135 0.191,0 0.35,0.091 0.404,0.281 l -0.127,0.024 c -0.017,-0.07 -0.05,-0.116 -0.109,-0.155 -0.074,-0.044 -0.135,-0.044 -0.17,-0.044 -0.064,0 -0.102,0.012 -0.127,0.023 -0.05,0.021 -0.085,0.058 -0.096,0.071 -0.095,0.108 -0.093,0.259 -0.095,0.297 z m -0.735,0.104 c 0.006,0.044 0.012,0.073 0.017,0.09 0.012,0.045 0.029,0.078 0.039,0.093 0.021,0.038 0.042,0.064 0.056,0.075 0.075,0.069 0.167,0.073 0.2,0.073 0.197,0 0.295,-0.15 0.293,-0.331 z m 0.973,-0.58 h 0.122 v 0.133 c 0.059,-0.067 0.111,-0.115 0.2,-0.138 0.048,-0.012 0.088,-0.012 0.11,-0.012 0.077,0 0.127,0.014 0.158,0.025 0.104,0.037 0.16,0.114 0.179,0.144 0.065,0.103 0.084,0.222 0.084,0.34 0,0.138 -0.029,0.286 -0.127,0.394 -0.104,0.116 -0.231,0.121 -0.288,0.121 -0.183,0 -0.272,-0.1 -0.316,-0.153 v 0.506 h -0.122 z m 0.116,0.482 c -0.004,0.202 0.058,0.308 0.135,0.364 0.069,0.054 0.146,0.058 0.177,0.058 0.065,0 0.106,-0.018 0.129,-0.029 0.015,-0.01 0.052,-0.031 0.085,-0.072 0.092,-0.113 0.088,-0.275 0.088,-0.311 0,-0.168 -0.046,-0.26 -0.094,-0.318 -0.056,-0.066 -0.12,-0.091 -0.208,-0.091 -0.087,0 -0.137,0.025 -0.17,0.046 -0.038,0.027 -0.063,0.06 -0.073,0.074 -0.034,0.052 -0.065,0.138 -0.069,0.279 M 20.73,0 v -0.607 c 0.002,-0.117 0.006,-0.25 0.107,-0.333 0.085,-0.069 0.208,-0.069 0.235,-0.069 0.091,-0.002 0.187,0.027 0.253,0.09 0.019,0.02 0.027,0.029 0.042,0.052 v -0.129 h 0.125 V 0 h -0.125 v -0.553 c 0,-0.011 0.002,-0.088 -0.011,-0.144 -0.033,-0.125 -0.122,-0.175 -0.168,-0.191 -0.023,-0.009 -0.056,-0.017 -0.114,-0.017 -0.031,0 -0.121,0 -0.175,0.087 -0.046,0.075 -0.046,0.202 -0.046,0.285 V 0 Z m 1.864,-0.52 c 0,0.044 0.014,0.314 -0.161,0.455 -0.098,0.08 -0.214,0.084 -0.258,0.084 -0.189,0 -0.293,-0.094 -0.339,-0.156 -0.046,-0.059 -0.104,-0.177 -0.104,-0.358 0,-0.038 0.002,-0.252 0.117,-0.387 0.11,-0.127 0.272,-0.135 0.324,-0.135 0.19,0 0.35,0.091 0.404,0.281 l -0.127,0.024 c -0.017,-0.07 -0.05,-0.116 -0.11,-0.155 -0.073,-0.044 -0.134,-0.044 -0.169,-0.044 -0.064,0 -0.102,0.012 -0.127,0.023 -0.05,0.021 -0.085,0.058 -0.097,0.071 -0.094,0.108 -0.092,0.259 -0.094,0.297 z m -0.735,0.104 c 0.006,0.044 0.011,0.073 0.017,0.09 0.012,0.045 0.029,0.078 0.039,0.093 0.021,0.038 0.042,0.064 0.056,0.075 0.075,0.069 0.167,0.073 0.2,0.073 0.196,0 0.295,-0.15 0.293,-0.331 z M 22.957,0 h -0.125 v -0.996 h 0.125 v 0.497 c 0.002,0.135 0.004,0.193 0.031,0.256 l 0.027,0.047 c 0.008,0.011 0.046,0.055 0.094,0.077 0.054,0.023 0.11,0.023 0.131,0.021 v 0.117 c -0.113,0.002 -0.186,-0.04 -0.219,-0.069 -0.029,-0.025 -0.062,-0.071 -0.064,-0.075 z m 0.348,-0.487 c 0,-0.127 0.037,-0.285 0.117,-0.389 0.108,-0.133 0.253,-0.139 0.314,-0.139 0.141,0 0.224,0.052 0.268,0.089 0.167,0.138 0.171,0.381 0.171,0.435 0,0.052 -0.002,0.352 -0.229,0.471 -0.081,0.041 -0.165,0.045 -0.194,0.045 -0.129,0 -0.257,-0.05 -0.337,-0.152 -0.079,-0.098 -0.11,-0.237 -0.11,-0.36 m 0.121,-0.014 c -0.004,0.318 0.162,0.42 0.316,0.42 0.11,0 0.168,-0.044 0.2,-0.077 0.116,-0.11 0.114,-0.304 0.114,-0.337 0,-0.223 -0.091,-0.339 -0.181,-0.385 -0.056,-0.029 -0.114,-0.031 -0.135,-0.031 -0.029,0 -0.102,0.004 -0.168,0.05 -0.077,0.054 -0.142,0.16 -0.146,0.36 m 0.962,-0.495 h 0.156 v 0.192 h -0.156 z m 1.106,1.36 v -0.509 l -0.04,0.049 c -0.1,0.103 -0.229,0.109 -0.277,0.109 -0.197,0 -0.291,-0.113 -0.331,-0.177 -0.062,-0.1 -0.085,-0.235 -0.085,-0.35 0,-0.268 0.119,-0.399 0.223,-0.455 0.079,-0.04 0.166,-0.044 0.197,-0.044 0.186,0 0.26,0.091 0.311,0.15 l 0.002,-0.133 h 0.123 v 1.36 z m 0.004,-0.863 c 0,-0.077 -0.013,-0.142 -0.021,-0.169 -0.01,-0.041 -0.023,-0.081 -0.046,-0.118 -0.029,-0.048 -0.1,-0.125 -0.241,-0.125 -0.065,0 -0.11,0.016 -0.131,0.027 -0.048,0.021 -0.077,0.056 -0.088,0.071 -0.089,0.11 -0.089,0.272 -0.089,0.305 0,0.15 0.042,0.254 0.077,0.302 0.029,0.04 0.102,0.114 0.231,0.114 0.031,0 0.112,-0.004 0.181,-0.06 0.037,-0.029 0.06,-0.062 0.068,-0.075 0.061,-0.102 0.059,-0.245 0.059,-0.272 M 26.71,-0.52 c 0,0.044 0.014,0.314 -0.161,0.455 -0.099,0.08 -0.214,0.084 -0.258,0.084 -0.189,0 -0.293,-0.094 -0.339,-0.156 -0.047,-0.059 -0.104,-0.177 -0.104,-0.358 0,-0.038 0.002,-0.252 0.117,-0.387 0.11,-0.127 0.272,-0.135 0.324,-0.135 0.19,0 0.35,0.091 0.404,0.281 l -0.127,0.024 c -0.017,-0.07 -0.05,-0.116 -0.11,-0.155 -0.073,-0.044 -0.135,-0.044 -0.169,-0.044 -0.064,0 -0.102,0.012 -0.127,0.023 -0.05,0.021 -0.085,0.058 -0.097,0.071 -0.094,0.108 -0.092,0.259 -0.094,0.297 z m -0.735,0.104 c 0.005,0.044 0.011,0.073 0.017,0.09 0.012,0.045 0.029,0.078 0.038,0.093 0.022,0.038 0.043,0.064 0.056,0.075 0.076,0.069 0.168,0.073 0.201,0.073 0.196,0 0.294,-0.15 0.293,-0.331 z" />
        </g>
        <path
           id="path35654"
           style="fill:#00ade7;fill-opacity:1;fill-rule:nonzero;stroke:none"
           d="m 174.276,-7.923 h 0.127 v 0.995 h -0.127 z m 0,1.185 h 0.127 v 0.173 h -0.127 z m 0.526,-0.189 h -0.121 v -0.996 h 0.121 v 0.516 c 0,0.093 0,0.193 0.055,0.276 0.072,0.108 0.185,0.113 0.228,0.113 0.036,0 0.173,0 0.215,-0.127 0.016,-0.044 0.018,-0.1 0.02,-0.198 v -0.58 h 0.123 v 0.634 c -0.002,0.131 -0.008,0.268 -0.14,0.339 -0.076,0.04 -0.168,0.042 -0.191,0.042 -0.041,0 -0.178,-0.002 -0.274,-0.098 l -0.035,-0.044 z m 0.805,0.002 v -0.108 h 0.131 v -0.89 h 0.126 v 0.89 h 0.191 v 0.108 h -0.191 v 0.067 c 0,0.082 0,0.12 0.025,0.155 l 0.047,0.038 c 0.032,0.013 0.086,0.011 0.119,0.009 v 0.102 c -0.04,0.006 -0.06,0.008 -0.079,0.008 -0.144,0 -0.2,-0.069 -0.221,-0.131 -0.008,-0.025 -0.012,-0.05 -0.014,-0.101 -0.002,-0.035 -0.003,-0.069 -0.003,-0.102 v -0.045 z m 0.547,-0.489 c 0,-0.128 0.036,-0.285 0.117,-0.389 0.107,-0.133 0.252,-0.139 0.314,-0.139 0.14,0 0.223,0.052 0.267,0.089 0.168,0.138 0.171,0.381 0.171,0.435 0,0.052 -0.002,0.352 -0.228,0.471 -0.081,0.041 -0.166,0.045 -0.195,0.045 -0.129,0 -0.256,-0.05 -0.337,-0.152 -0.079,-0.098 -0.109,-0.237 -0.109,-0.36 m 0.12,-0.014 c -0.003,0.318 0.162,0.42 0.316,0.42 0.11,0 0.168,-0.044 0.201,-0.077 0.115,-0.11 0.113,-0.304 0.113,-0.337 0,-0.224 -0.09,-0.339 -0.181,-0.385 -0.056,-0.029 -0.113,-0.031 -0.135,-0.031 -0.029,0 -0.102,0.004 -0.167,0.05 -0.077,0.054 -0.143,0.16 -0.147,0.36 m 1.933,0.299 c -0.011,0.032 -0.021,0.061 -0.042,0.09 -0.061,0.092 -0.148,0.104 -0.19,0.104 -0.106,0 -0.185,-0.067 -0.208,-0.086 -0.056,-0.051 -0.145,-0.151 -0.179,-0.33 -0.012,-0.059 -0.014,-0.1 -0.014,-0.127 0,-0.165 0.073,-0.245 0.139,-0.277 0.015,-0.008 0.054,-0.025 0.104,-0.025 0.057,0 0.161,0.023 0.258,0.133 l 0.04,0.052 -0.002,-0.035 c 0,-0.09 0.056,-0.152 0.15,-0.152 0.056,0 0.143,0.023 0.233,0.119 0.133,0.145 0.204,0.366 0.204,0.561 0,0.257 -0.126,0.389 -0.213,0.45 -0.143,0.098 -0.297,0.1 -0.355,0.1 -0.385,0 -0.606,-0.235 -0.693,-0.343 -0.179,-0.233 -0.198,-0.473 -0.198,-0.579 -0.002,-0.233 0.088,-0.368 0.152,-0.443 0.195,-0.229 0.499,-0.244 0.584,-0.244 0.313,0 0.531,0.157 0.616,0.225 0.029,0.023 0.058,0.05 0.084,0.077 l -0.044,0.05 c -0.029,-0.029 -0.059,-0.056 -0.092,-0.081 -0.162,-0.125 -0.361,-0.198 -0.566,-0.2 -0.247,0 -0.495,0.106 -0.605,0.343 -0.052,0.113 -0.056,0.231 -0.056,0.273 0,0.323 0.191,0.639 0.483,0.78 0.141,0.065 0.266,0.071 0.324,0.071 0.075,0 0.35,-0.011 0.462,-0.262 0.041,-0.092 0.042,-0.187 0.042,-0.219 0,-0.164 -0.057,-0.359 -0.161,-0.488 -0.033,-0.04 -0.103,-0.111 -0.162,-0.111 -0.081,0 -0.077,0.104 -0.077,0.11 0,0.042 0.013,0.119 0.013,0.121 0.012,0.071 0.029,0.142 0.045,0.216 l 0.061,0.277 h -0.102 z m -0.034,-0.126 c -0.002,-0.051 -0.015,-0.111 -0.017,-0.123 -0.037,-0.16 -0.11,-0.237 -0.172,-0.275 -0.05,-0.031 -0.092,-0.037 -0.115,-0.037 -0.047,0 -0.079,0.02 -0.095,0.027 -0.063,0.044 -0.08,0.118 -0.083,0.191 0,0.135 0.056,0.32 0.17,0.404 0.038,0.027 0.081,0.047 0.129,0.047 0.125,0 0.166,-0.116 0.173,-0.147 0.01,-0.037 0.01,-0.075 0.01,-0.087 m 0.981,-0.668 h 0.127 v 0.995 h -0.127 z m 0,1.185 h 0.127 v 0.173 h -0.127 z m 0.532,0.175 h -0.123 v -1.36 h 0.123 v 0.516 c 0,0.095 -0.002,0.195 0.056,0.278 0.073,0.108 0.187,0.111 0.229,0.111 0.125,0 0.181,-0.057 0.204,-0.107 0.025,-0.056 0.027,-0.122 0.025,-0.243 v -0.555 h 0.125 v 0.63 c 0,0.075 0,0.166 -0.033,0.235 -0.009,0.017 -0.034,0.065 -0.082,0.096 -0.035,0.023 -0.106,0.056 -0.208,0.056 -0.062,0 -0.21,-0.008 -0.316,-0.146 z m 1.052,-0.364 h -0.125 v -0.996 h 0.125 v 0.497 c 0.002,0.135 0.004,0.193 0.031,0.256 l 0.027,0.047 c 0.008,0.011 0.046,0.055 0.094,0.077 0.054,0.023 0.11,0.023 0.131,0.021 v 0.117 c -0.114,0.002 -0.186,-0.041 -0.219,-0.069 -0.029,-0.025 -0.062,-0.071 -0.064,-0.075 z m 0.402,-0.481 h 0.477 v 0.111 h -0.477 z m 1.537,-0.039 c 0,0.044 0.014,0.314 -0.161,0.454 -0.099,0.081 -0.214,0.085 -0.258,0.085 -0.189,0 -0.293,-0.094 -0.339,-0.156 -0.047,-0.06 -0.104,-0.177 -0.104,-0.358 0,-0.038 0.002,-0.252 0.117,-0.387 0.11,-0.127 0.272,-0.135 0.324,-0.135 0.19,0 0.35,0.091 0.404,0.281 l -0.127,0.023 c -0.017,-0.069 -0.05,-0.115 -0.11,-0.154 -0.073,-0.044 -0.135,-0.044 -0.169,-0.044 -0.064,0 -0.102,0.011 -0.127,0.023 -0.05,0.021 -0.085,0.058 -0.097,0.071 -0.094,0.108 -0.092,0.258 -0.094,0.297 z m -0.735,0.104 c 0.005,0.044 0.011,0.073 0.017,0.09 0.012,0.045 0.029,0.077 0.038,0.093 0.022,0.038 0.043,0.063 0.056,0.075 0.076,0.069 0.168,0.073 0.201,0.073 0.196,0 0.294,-0.15 0.293,-0.331 z m 1.098,0.416 h -0.125 v -0.996 h 0.125 v 0.497 c 0.002,0.135 0.004,0.193 0.031,0.256 l 0.027,0.047 c 0.008,0.011 0.046,0.055 0.094,0.077 0.054,0.023 0.11,0.023 0.131,0.021 v 0.117 c -0.113,0.002 -0.187,-0.041 -0.219,-0.069 -0.029,-0.025 -0.062,-0.071 -0.064,-0.075 z m 0.443,-0.996 h 0.12 v 0.133 c 0.06,-0.067 0.112,-0.115 0.201,-0.138 0.048,-0.012 0.088,-0.012 0.11,-0.012 0.077,0 0.127,0.014 0.157,0.025 0.105,0.037 0.16,0.114 0.18,0.144 0.065,0.102 0.084,0.222 0.084,0.339 0,0.139 -0.029,0.287 -0.127,0.395 -0.104,0.115 -0.231,0.121 -0.289,0.121 -0.183,0 -0.271,-0.1 -0.316,-0.154 v 0.507 h -0.12 z m 0.115,0.482 c -0.004,0.202 0.058,0.308 0.135,0.364 0.069,0.054 0.146,0.058 0.177,0.058 0.065,0 0.106,-0.018 0.129,-0.029 0.015,-0.01 0.052,-0.031 0.085,-0.072 0.092,-0.113 0.088,-0.275 0.088,-0.312 0,-0.167 -0.046,-0.26 -0.094,-0.317 -0.056,-0.066 -0.12,-0.091 -0.208,-0.091 -0.087,0 -0.137,0.025 -0.17,0.046 -0.038,0.027 -0.063,0.06 -0.073,0.074 -0.035,0.051 -0.065,0.138 -0.069,0.279 m 1.077,0.212 c 0.004,0.055 0.014,0.094 0.025,0.115 l 0.033,0.042 c 0.065,0.062 0.162,0.06 0.185,0.06 0.019,0 0.061,0 0.111,-0.015 0.051,-0.016 0.118,-0.054 0.118,-0.178 0,-0.04 -0.006,-0.055 -0.019,-0.071 -0.031,-0.034 -0.091,-0.042 -0.185,-0.061 l -0.114,-0.019 c -0.106,-0.024 -0.217,-0.045 -0.281,-0.147 -0.036,-0.06 -0.036,-0.125 -0.036,-0.148 -0.002,-0.187 0.124,-0.252 0.192,-0.274 0.041,-0.013 0.077,-0.017 0.121,-0.017 0.031,0 0.181,0.002 0.276,0.092 0.038,0.035 0.046,0.062 0.05,0.085 0,-0.011 -0.008,-0.094 0.05,-0.134 0.042,-0.029 0.115,-0.027 0.163,-0.027 v 0.103 c -0.015,0 -0.075,-10e-4 -0.092,0.056 -0.01,0.027 -0.008,0.054 -0.01,0.112 v 0.385 c 0,0.091 0.004,0.187 -0.057,0.26 -0.087,0.102 -0.278,0.098 -0.293,0.098 -0.042,0 -0.243,0.004 -0.327,-0.158 -0.027,-0.048 -0.037,-0.104 -0.043,-0.158 z m 0.322,-0.193 c 0.052,0.012 0.104,0.023 0.154,0.04 v -0.069 c 0.002,-0.144 0.004,-0.268 -0.141,-0.347 -0.073,-0.04 -0.142,-0.044 -0.171,-0.044 -0.083,0 -0.158,0.033 -0.191,0.11 -0.013,0.033 -0.015,0.065 -0.015,0.079 0,0.042 0.013,0.125 0.117,0.171 0.037,0.016 0.075,0.025 0.158,0.043 z m 1.327,0.208 c -0.013,0.073 -0.031,0.108 -0.05,0.14 -0.094,0.156 -0.264,0.166 -0.319,0.166 -0.108,0 -0.203,-0.033 -0.281,-0.108 -0.151,-0.142 -0.154,-0.348 -0.154,-0.41 0,-0.177 0.057,-0.375 0.227,-0.468 0.086,-0.046 0.165,-0.046 0.202,-0.046 0.152,0 0.238,0.065 0.283,0.11 0.071,0.073 0.1,0.179 0.108,0.206 l -0.124,0.023 c -0.023,-0.096 -0.065,-0.181 -0.163,-0.218 -0.047,-0.017 -0.087,-0.019 -0.104,-0.019 -0.025,0 -0.087,0.002 -0.149,0.04 -0.028,0.02 -0.057,0.049 -0.076,0.075 -0.076,0.108 -0.077,0.26 -0.077,0.291 0,0.149 0.042,0.249 0.075,0.299 0.074,0.114 0.181,0.123 0.231,0.123 0.127,0 0.192,-0.081 0.215,-0.121 0.014,-0.02 0.027,-0.048 0.035,-0.1 z m 0.302,0.651 h -0.123 v -1.36 h 0.123 v 0.516 c 0,0.095 -0.002,0.195 0.055,0.278 0.074,0.108 0.187,0.111 0.23,0.111 0.125,0 0.181,-0.057 0.204,-0.107 0.025,-0.056 0.027,-0.122 0.025,-0.243 v -0.555 h 0.125 v 0.63 c 0,0.075 0,0.166 -0.033,0.235 -0.009,0.017 -0.034,0.065 -0.082,0.096 -0.035,0.023 -0.106,0.056 -0.209,0.056 -0.061,0 -0.21,-0.008 -0.315,-0.146 z m 1.737,-0.884 c 0,0.044 0.014,0.314 -0.161,0.454 -0.098,0.081 -0.214,0.085 -0.258,0.085 -0.189,0 -0.293,-0.094 -0.339,-0.156 -0.046,-0.06 -0.104,-0.177 -0.104,-0.358 0,-0.038 0.002,-0.252 0.117,-0.387 0.11,-0.127 0.272,-0.135 0.324,-0.135 0.191,0 0.35,0.091 0.404,0.281 l -0.127,0.023 c -0.017,-0.069 -0.05,-0.115 -0.11,-0.154 -0.073,-0.044 -0.135,-0.044 -0.169,-0.044 -0.064,0 -0.102,0.011 -0.127,0.023 -0.05,0.021 -0.085,0.058 -0.097,0.071 -0.094,0.108 -0.092,0.258 -0.094,0.297 z m -0.735,0.104 c 0.005,0.044 0.011,0.073 0.017,0.09 0.012,0.045 0.029,0.077 0.039,0.093 0.021,0.038 0.042,0.063 0.056,0.075 0.075,0.069 0.167,0.073 0.2,0.073 0.196,0 0.294,-0.15 0.293,-0.331 z m 1.098,0.416 h -0.124 v -0.996 h 0.124 v 0.497 c 0.002,0.135 0.004,0.193 0.031,0.256 l 0.027,0.047 c 0.008,0.011 0.046,0.055 0.095,0.077 0.053,0.023 0.109,0.023 0.13,0.021 v 0.117 c -0.113,0.002 -0.186,-0.041 -0.219,-0.069 -0.029,-0.025 -0.062,-0.071 -0.064,-0.075 z m 0.402,-0.481 h 0.477 v 0.111 h -0.477 z m 0.852,0.481 h -0.125 v -0.996 h 0.125 v 0.497 c 0.002,0.135 0.004,0.193 0.031,0.256 l 0.027,0.047 c 0.007,0.011 0.046,0.055 0.094,0.077 0.054,0.023 0.11,0.023 0.131,0.021 v 0.117 c -0.114,0.002 -0.187,-0.041 -0.22,-0.069 -0.029,-0.025 -0.061,-0.071 -0.063,-0.075 z m 1.212,-0.52 c 0,0.044 0.014,0.314 -0.161,0.454 -0.099,0.081 -0.214,0.085 -0.258,0.085 -0.189,0 -0.293,-0.094 -0.34,-0.156 -0.046,-0.06 -0.103,-0.177 -0.103,-0.358 0,-0.038 0.002,-0.252 0.117,-0.387 0.11,-0.127 0.271,-0.135 0.323,-0.135 0.191,0 0.351,0.091 0.405,0.281 l -0.127,0.023 c -0.017,-0.069 -0.05,-0.115 -0.11,-0.154 -0.073,-0.044 -0.135,-0.044 -0.169,-0.044 -0.064,0 -0.102,0.011 -0.128,0.023 -0.05,0.021 -0.084,0.058 -0.096,0.071 -0.094,0.108 -0.092,0.258 -0.094,0.297 z m -0.735,0.104 c 0.005,0.044 0.011,0.073 0.017,0.09 0.012,0.045 0.029,0.077 0.038,0.093 0.022,0.038 0.043,0.063 0.056,0.075 0.075,0.069 0.168,0.073 0.201,0.073 0.196,0 0.294,-0.15 0.292,-0.331 z m 0.967,-0.58 h 0.127 v 0.995 h -0.127 z m 0,1.185 h 0.127 v 0.173 h -0.127 z m 0.354,-0.881 c 0.013,-0.078 0.025,-0.115 0.042,-0.148 0.087,-0.175 0.285,-0.175 0.335,-0.175 0.187,0 0.277,0.075 0.318,0.15 0.023,0.043 0.03,0.089 0.03,0.135 0,0.054 -0.009,0.087 -0.015,0.106 -0.031,0.087 -0.09,0.131 -0.171,0.164 -0.033,0.013 -0.066,0.023 -0.098,0.032 l -0.077,0.022 c -0.056,0.015 -0.114,0.03 -0.155,0.078 -0.023,0.027 -0.031,0.054 -0.031,0.089 0,0.033 0.008,0.064 0.027,0.091 0.026,0.032 0.074,0.073 0.172,0.073 0.031,0 0.143,-0.002 0.189,-0.104 0.017,-0.039 0.021,-0.079 0.021,-0.093 l 0.123,0.016 c -0.002,0.032 -0.011,0.138 -0.096,0.21 -0.083,0.069 -0.206,0.071 -0.231,0.071 -0.168,0 -0.327,-0.077 -0.327,-0.268 0,-0.021 0.002,-0.067 0.025,-0.117 0.044,-0.102 0.132,-0.129 0.229,-0.158 l 0.077,-0.019 c 0.067,-0.02 0.142,-0.039 0.187,-0.099 0.021,-0.029 0.03,-0.059 0.03,-0.096 0,-0.079 -0.038,-0.114 -0.063,-0.133 -0.031,-0.023 -0.077,-0.046 -0.16,-0.046 -0.218,0 -0.245,0.15 -0.256,0.233 z m 1.795,0.172 c 0,0.044 0.014,0.314 -0.162,0.454 -0.098,0.081 -0.213,0.085 -0.257,0.085 -0.189,0 -0.293,-0.094 -0.34,-0.156 -0.046,-0.06 -0.103,-0.177 -0.103,-0.358 0,-0.038 10e-4,-0.252 0.117,-0.387 0.11,-0.127 0.271,-0.135 0.323,-0.135 0.191,0 0.351,0.091 0.405,0.281 l -0.127,0.023 c -0.018,-0.069 -0.05,-0.115 -0.11,-0.154 -0.073,-0.044 -0.135,-0.044 -0.17,-0.044 -0.063,0 -0.102,0.011 -0.127,0.023 -0.05,0.021 -0.084,0.058 -0.096,0.071 -0.094,0.108 -0.092,0.258 -0.094,0.297 z m -0.736,0.104 c 0.006,0.044 0.012,0.073 0.018,0.09 0.012,0.045 0.029,0.077 0.038,0.093 0.022,0.038 0.043,0.063 0.056,0.075 0.075,0.069 0.168,0.073 0.2,0.073 0.197,0 0.295,-0.15 0.293,-0.331 z m 0.974,-0.58 h 0.121 v 0.133 c 0.06,-0.067 0.112,-0.115 0.2,-0.138 0.049,-0.012 0.089,-0.012 0.11,-0.012 0.077,0 0.127,0.014 0.158,0.025 0.104,0.037 0.16,0.114 0.179,0.144 0.065,0.102 0.085,0.222 0.085,0.339 0,0.139 -0.029,0.287 -0.127,0.395 -0.104,0.115 -0.231,0.121 -0.289,0.121 -0.183,0 -0.271,-0.1 -0.316,-0.154 v 0.507 h -0.121 z m 0.115,0.482 c -0.003,0.202 0.058,0.308 0.135,0.364 0.07,0.054 0.147,0.058 0.177,0.058 0.066,0 0.106,-0.018 0.129,-0.029 0.016,-0.01 0.052,-0.031 0.085,-0.072 0.093,-0.113 0.089,-0.275 0.089,-0.312 0,-0.167 -0.046,-0.26 -0.095,-0.317 -0.055,-0.066 -0.119,-0.091 -0.208,-0.091 -0.086,0 -0.136,0.025 -0.169,0.046 -0.039,0.027 -0.064,0.06 -0.073,0.074 -0.035,0.051 -0.066,0.138 -0.07,0.279 m 0.966,0.514 v -0.607 c 0.002,-0.117 0.006,-0.25 0.108,-0.333 0.084,-0.069 0.208,-0.069 0.235,-0.069 0.09,-0.002 0.187,0.027 0.252,0.09 0.019,0.019 0.027,0.029 0.043,0.052 v -0.129 h 0.124 v 0.996 H 195.53 V -7.48 c 0,-0.012 0.001,-0.089 -0.012,-0.144 -0.033,-0.125 -0.121,-0.176 -0.168,-0.191 -0.023,-0.009 -0.056,-0.017 -0.113,-0.017 -0.031,0 -0.121,0 -0.176,0.086 -0.046,0.076 -0.046,0.203 -0.046,0.286 v 0.533 z m 1.865,-0.52 c 0,0.044 0.013,0.314 -0.162,0.454 -0.098,0.081 -0.213,0.085 -0.258,0.085 -0.188,0 -0.292,-0.094 -0.339,-0.156 -0.046,-0.06 -0.104,-0.177 -0.104,-0.358 0,-0.038 0.002,-0.252 0.118,-0.387 0.11,-0.127 0.271,-0.135 0.323,-0.135 0.191,0 0.351,0.091 0.404,0.281 l -0.126,0.023 c -0.018,-0.069 -0.05,-0.115 -0.11,-0.154 -0.073,-0.044 -0.135,-0.044 -0.17,-0.044 -0.063,0 -0.102,0.011 -0.127,0.023 -0.05,0.021 -0.084,0.058 -0.096,0.071 -0.094,0.108 -0.092,0.258 -0.094,0.297 z m -0.736,0.104 c 0.006,0.044 0.012,0.073 0.018,0.09 0.011,0.045 0.029,0.077 0.038,0.093 0.021,0.038 0.043,0.063 0.056,0.075 0.075,0.069 0.167,0.073 0.2,0.073 0.197,0 0.295,-0.15 0.293,-0.331 z m 1.099,0.416 h -0.125 v -0.996 h 0.125 v 0.497 c 0.002,0.135 0.004,0.193 0.031,0.256 l 0.027,0.047 c 0.007,0.011 0.046,0.055 0.094,0.077 0.054,0.023 0.11,0.023 0.131,0.021 v 0.117 c -0.114,0.002 -0.187,-0.041 -0.22,-0.069 -0.028,-0.025 -0.061,-0.071 -0.063,-0.075 z m 0.348,-0.487 c 0,-0.128 0.036,-0.285 0.117,-0.389 0.108,-0.133 0.252,-0.139 0.314,-0.139 0.14,0 0.223,0.052 0.268,0.089 0.167,0.138 0.171,0.381 0.171,0.435 0,0.052 -0.002,0.352 -0.229,0.471 -0.081,0.041 -0.166,0.045 -0.195,0.045 -0.129,0 -0.256,-0.05 -0.337,-0.152 -0.078,-0.098 -0.109,-0.237 -0.109,-0.36 m 0.121,-0.014 c -0.004,0.318 0.162,0.42 0.316,0.42 0.11,0 0.167,-0.044 0.2,-0.077 0.115,-0.11 0.114,-0.304 0.114,-0.337 0,-0.224 -0.091,-0.339 -0.181,-0.385 -0.056,-0.029 -0.114,-0.031 -0.135,-0.031 -0.029,0 -0.102,0.004 -0.168,0.05 -0.077,0.054 -0.143,0.16 -0.146,0.36 m 0.962,-0.495 h 0.156 v 0.192 h -0.156 z m 1.106,1.36 v -0.509 l -0.04,0.049 c -0.101,0.103 -0.23,0.109 -0.278,0.109 -0.196,0 -0.291,-0.113 -0.331,-0.177 -0.062,-0.1 -0.084,-0.235 -0.084,-0.35 0,-0.268 0.119,-0.399 0.223,-0.455 0.078,-0.04 0.165,-0.044 0.196,-0.044 0.187,0 0.26,0.09 0.312,0.15 l 0.002,-0.133 h 0.123 v 1.36 z m 0.004,-0.863 c 0,-0.077 -0.014,-0.143 -0.021,-0.169 -0.01,-0.041 -0.023,-0.081 -0.046,-0.118 -0.029,-0.048 -0.101,-0.125 -0.241,-0.125 -0.066,0 -0.11,0.015 -0.131,0.027 -0.048,0.021 -0.077,0.056 -0.089,0.071 -0.089,0.11 -0.089,0.272 -0.089,0.304 0,0.151 0.043,0.255 0.077,0.303 0.029,0.04 0.103,0.114 0.232,0.114 0.031,0 0.111,-0.004 0.181,-0.06 0.036,-0.029 0.06,-0.062 0.067,-0.075 0.062,-0.102 0.06,-0.245 0.06,-0.272 m 1.212,-0.021 c 0,0.044 0.013,0.314 -0.162,0.454 -0.098,0.081 -0.214,0.085 -0.258,0.085 -0.189,0 -0.293,-0.094 -0.339,-0.156 -0.046,-0.06 -0.104,-0.177 -0.104,-0.358 0,-0.038 0.002,-0.252 0.117,-0.387 0.11,-0.127 0.272,-0.135 0.324,-0.135 0.191,0 0.351,0.091 0.404,0.281 l -0.127,0.023 c -0.017,-0.069 -0.05,-0.115 -0.109,-0.154 -0.073,-0.044 -0.135,-0.044 -0.17,-0.044 -0.063,0 -0.102,0.011 -0.127,0.023 -0.05,0.021 -0.085,0.058 -0.096,0.071 -0.095,0.108 -0.093,0.258 -0.095,0.297 z m -0.736,0.104 c 0.006,0.044 0.012,0.073 0.017,0.09 0.012,0.045 0.029,0.077 0.039,0.093 0.021,0.038 0.043,0.063 0.056,0.075 0.075,0.069 0.168,0.073 0.2,0.073 0.197,0 0.295,-0.15 0.293,-0.331 z" />
        <g
           transform="translate(175.0577,-4.8615)"
           id="g35656">
          <path
             id="path35658"
             style="fill:#00ade7;fill-opacity:1;fill-rule:nonzero;stroke:none"
             d="m 0,0 h -0.63 v 0.493 h 0.699 v 0.114 h -0.831 v -1.358 h 0.132 v 0.638 H 0 Z m 0.293,-0.057 c 0.003,0.055 0.013,0.094 0.025,0.115 L 0.35,0.1 c 0.066,0.062 0.162,0.06 0.185,0.06 0.02,0 0.062,0 0.112,-0.015 0.05,-0.016 0.117,-0.054 0.117,-0.178 0,-0.04 -0.005,-0.055 -0.019,-0.071 C 0.714,-0.138 0.655,-0.146 0.56,-0.165 L 0.447,-0.185 C 0.341,-0.208 0.229,-0.229 0.166,-0.331 0.129,-0.391 0.129,-0.456 0.129,-0.479 0.127,-0.666 0.254,-0.731 0.322,-0.753 0.362,-0.766 0.399,-0.77 0.443,-0.77 c 0.031,0 0.181,0.002 0.275,0.092 0.039,0.035 0.046,0.062 0.05,0.085 0,-0.012 -0.007,-0.094 0.05,-0.135 0.043,-0.029 0.116,-0.026 0.164,-0.026 v 0.103 c -0.015,0 -0.075,-0.002 -0.093,0.056 -0.009,0.027 -0.007,0.054 -0.009,0.112 v 0.385 c 0,0.091 0.004,0.187 -0.058,0.26 C 0.736,0.264 0.545,0.26 0.53,0.26 0.487,0.26 0.287,0.264 0.202,0.102 0.175,0.054 0.166,-0.002 0.16,-0.056 Z M 0.614,-0.25 c 0.052,0.011 0.104,0.023 0.154,0.04 V -0.279 C 0.77,-0.424 0.772,-0.547 0.628,-0.626 0.555,-0.666 0.485,-0.67 0.456,-0.67 c -0.082,0 -0.157,0.033 -0.19,0.11 -0.014,0.032 -0.016,0.065 -0.016,0.079 0,0.042 0.014,0.125 0.118,0.171 0.036,0.016 0.075,0.025 0.158,0.043 z M 1.538,-0.246 1.87,0.245 H 1.719 L 1.469,-0.148 1.224,0.245 H 1.07 L 1.404,-0.246 1.08,-0.751 h 0.144 l 0.245,0.405 0.25,-0.405 H 1.87 Z m 2.334,-0.505 v 0.52 H 4.39 v 0.083 H 3.872 v 0.52 H 3.788 v -0.52 H 3.272 v -0.083 h 0.516 v -0.52 z m 0.688,0.32 h 0.58 v -0.32 h 0.128 v 0.32 H 5.459 V -0.32 H 5.268 V 0.583 H 5.178 L 4.56,-0.32 Z M 4.687,-0.32 5.149,0.366 5.14,-0.32 Z M 5.73,-0.414 C 5.74,-0.502 5.767,-0.579 5.829,-0.647 5.925,-0.751 6.05,-0.762 6.1,-0.762 c 0.04,0 0.156,0.008 0.254,0.082 0.049,0.039 0.081,0.083 0.093,0.102 0.1,0.153 0.113,0.378 0.117,0.416 0.004,0.046 0.006,0.093 0.006,0.139 C 6.57,0.264 6.497,0.418 6.393,0.51 6.295,0.597 6.179,0.603 6.131,0.603 6.056,0.603 5.853,0.585 5.76,0.372 5.719,0.283 5.717,0.198 5.717,0.166 c 0,-0.064 0.016,-0.308 0.237,-0.403 0.027,-0.011 0.085,-0.03 0.163,-0.032 0.16,0.002 0.253,0.079 0.295,0.123 l 0.027,0.033 c 0,-0.022 -0.004,-0.266 -0.09,-0.409 -0.026,-0.038 -0.091,-0.133 -0.228,-0.133 -0.052,0 -0.173,0.014 -0.235,0.149 -0.013,0.032 -0.023,0.065 -0.029,0.1 z M 6.426,0.162 C 6.427,0.029 6.376,-0.039 6.333,-0.077 6.256,-0.15 6.171,-0.156 6.133,-0.156 c -0.125,0 -0.226,0.075 -0.268,0.191 -0.008,0.023 -0.021,0.067 -0.021,0.131 0,0.123 0.05,0.256 0.175,0.306 C 6.065,0.491 6.11,0.491 6.129,0.491 6.183,0.491 6.22,0.48 6.243,0.472 6.312,0.443 6.426,0.355 6.426,0.162 M 7.721,0.609 C 7.586,0.426 7.473,0.254 7.421,0.027 7.411,-0.019 7.392,-0.111 7.392,-0.235 c 0,-0.248 0.075,-0.414 0.121,-0.5 0.039,-0.077 0.089,-0.16 0.202,-0.304 h 0.098 c -0.046,0.067 -0.092,0.134 -0.131,0.208 -0.048,0.09 -0.155,0.317 -0.155,0.61 0,0.123 0.021,0.387 0.188,0.674 0.031,0.056 0.068,0.106 0.104,0.156 z m 0.206,-0.68 c -0.002,-0.285 0.066,-0.691 0.447,-0.691 0.104,0 0.169,0.029 0.204,0.048 0.142,0.079 0.25,0.277 0.25,0.624 0,0.1 -0.006,0.188 -0.029,0.288 C 8.782,0.283 8.715,0.595 8.382,0.595 8.22,0.595 8.133,0.518 8.089,0.472 8,0.376 7.929,0.216 7.927,-0.071 M 8.058,-0.1 c 0,0.277 0.042,0.429 0.15,0.518 0.068,0.058 0.143,0.064 0.176,0.064 0.027,0 0.09,-0.004 0.152,-0.047 0.1,-0.069 0.129,-0.206 0.135,-0.233 0.027,-0.111 0.027,-0.231 0.027,-0.265 0,-0.024 0.003,-0.26 -0.062,-0.409 -0.047,-0.107 -0.135,-0.181 -0.258,-0.181 -0.143,0 -0.214,0.099 -0.239,0.139 C 8.068,-0.397 8.06,-0.231 8.058,-0.1 m 0.986,-0.939 c 0.141,0.188 0.252,0.362 0.304,0.594 0.023,0.112 0.025,0.203 0.025,0.249 0,0.242 -0.067,0.435 -0.198,0.635 C 9.137,0.497 9.094,0.553 9.052,0.609 H 8.953 C 8.998,0.541 9.044,0.476 9.083,0.405 9.223,0.145 9.24,-0.102 9.24,-0.21 9.24,-0.539 9.106,-0.791 9.046,-0.891 9.015,-0.943 8.98,-0.991 8.946,-1.039 Z m 0.645,1.507 h 0.67 C 10.301,0.385 10.13,0.141 10.01,-0.142 9.976,-0.229 9.881,-0.473 9.839,-0.751 h 0.156 c 0.009,0.133 0.029,0.222 0.042,0.279 0.071,0.322 0.216,0.58 0.275,0.676 0.06,0.097 0.128,0.187 0.197,0.276 v 0.101 h -0.82 z m 0.88,-0.814 c 0.002,-0.043 0.008,-0.112 0.056,-0.201 0.034,-0.061 0.067,-0.096 0.09,-0.115 0.116,-0.1 0.268,-0.102 0.314,-0.102 0.24,0 0.354,0.136 0.396,0.227 0.033,0.071 0.035,0.133 0.035,0.163 0,0.128 -0.056,0.236 -0.164,0.303 -0.038,0.025 -0.065,0.032 -0.084,0.038 l 0.038,0.014 c 0.06,0.027 0.156,0.108 0.156,0.273 0,0.218 -0.175,0.343 -0.377,0.343 -0.062,0 -0.278,-0.016 -0.372,-0.212 -0.034,-0.071 -0.042,-0.15 -0.044,-0.173 l 0.131,-0.016 c 0.006,0.05 0.011,0.076 0.019,0.101 0.021,0.059 0.081,0.185 0.26,0.185 0.141,0 0.206,-0.083 0.231,-0.133 0.021,-0.045 0.023,-0.083 0.023,-0.103 0,-0.077 -0.034,-0.125 -0.054,-0.146 -0.086,-0.102 -0.254,-0.092 -0.279,-0.092 v -0.11 h 0.039 c 0.013,0 0.098,0.002 0.161,-0.017 0.075,-0.023 0.118,-0.071 0.135,-0.095 0.046,-0.059 0.048,-0.123 0.048,-0.152 0,-0.094 -0.05,-0.287 -0.306,-0.287 -0.198,0 -0.304,0.122 -0.318,0.314 z m 1.126,0.275 c -0.002,-0.285 0.066,-0.691 0.447,-0.691 0.104,0 0.169,0.029 0.204,0.048 0.142,0.079 0.25,0.277 0.25,0.624 0,0.1 -0.006,0.188 -0.029,0.288 -0.017,0.085 -0.085,0.397 -0.418,0.397 -0.161,0 -0.248,-0.077 -0.292,-0.123 -0.089,-0.096 -0.16,-0.256 -0.162,-0.543 M 11.826,-0.1 c 0,0.277 0.042,0.429 0.15,0.518 0.067,0.058 0.142,0.064 0.175,0.064 0.027,0 0.091,-0.004 0.153,-0.047 0.1,-0.069 0.128,-0.206 0.134,-0.233 0.027,-0.111 0.027,-0.231 0.027,-0.265 0,-0.024 0.004,-0.26 -0.061,-0.409 -0.047,-0.107 -0.135,-0.181 -0.258,-0.181 -0.143,0 -0.214,0.099 -0.239,0.139 -0.071,0.117 -0.079,0.283 -0.081,0.414 m 1.057,-0.027 h 0.11 l 0.04,0.052 c 0.029,0.031 0.11,0.1 0.235,0.1 0.069,0 0.119,-0.023 0.142,-0.034 0.151,-0.081 0.162,-0.243 0.162,-0.293 0,-0.131 -0.061,-0.26 -0.183,-0.316 -0.025,-0.011 -0.069,-0.029 -0.135,-0.029 -0.104,0 -0.165,0.041 -0.194,0.069 -0.031,0.029 -0.079,0.097 -0.089,0.203 l -0.123,-0.016 c 0.01,-0.061 0.033,-0.246 0.222,-0.329 0.08,-0.037 0.156,-0.038 0.188,-0.038 0.195,0 0.349,0.103 0.414,0.288 0.027,0.077 0.027,0.145 0.027,0.177 0,0.168 -0.075,0.326 -0.235,0.397 -0.052,0.023 -0.107,0.033 -0.165,0.035 -0.106,0 -0.187,-0.039 -0.22,-0.056 C 13.06,0.071 13.052,0.068 13.022,0.043 l 0.071,0.427 h 0.541 v 0.117 h -0.641 z m 1.629,-0.287 c 0.009,-0.088 0.036,-0.165 0.098,-0.233 0.096,-0.104 0.221,-0.115 0.271,-0.115 0.041,0 0.156,0.008 0.255,0.082 0.048,0.039 0.08,0.083 0.092,0.102 0.1,0.153 0.113,0.378 0.117,0.416 0.004,0.046 0.006,0.093 0.006,0.139 0,0.287 -0.073,0.441 -0.177,0.533 -0.098,0.087 -0.214,0.093 -0.262,0.093 -0.075,0 -0.277,-0.018 -0.371,-0.231 C 14.5,0.283 14.498,0.198 14.498,0.166 c 0,-0.064 0.016,-0.308 0.237,-0.403 0.027,-0.011 0.085,-0.03 0.164,-0.032 0.16,0.002 0.252,0.079 0.294,0.123 l 0.027,0.033 c 0,-0.022 -0.004,-0.266 -0.09,-0.409 -0.025,-0.038 -0.091,-0.133 -0.228,-0.133 -0.051,0 -0.173,0.014 -0.234,0.149 -0.014,0.032 -0.024,0.065 -0.029,0.1 z m 0.695,0.576 c 0.002,-0.133 -0.05,-0.201 -0.093,-0.239 -0.077,-0.073 -0.162,-0.079 -0.2,-0.079 -0.125,0 -0.225,0.075 -0.268,0.191 -0.007,0.023 -0.021,0.067 -0.021,0.131 0,0.123 0.05,0.256 0.176,0.306 0.046,0.019 0.09,0.019 0.109,0.019 0.054,0 0.091,-0.011 0.114,-0.019 0.069,-0.029 0.183,-0.117 0.183,-0.31 m 1.241,0.092 C 16.422,0.466 16.295,0.547 16.21,0.578 16.187,0.585 16.141,0.603 16.077,0.603 16.058,0.603 16.013,0.599 15.963,0.585 15.933,0.578 15.9,0.566 15.873,0.551 15.798,0.509 15.736,0.435 15.698,0.358 15.655,0.272 15.609,0.106 15.609,-0.133 c 0,-0.269 0.06,-0.414 0.146,-0.508 0.106,-0.116 0.233,-0.121 0.293,-0.121 0.166,-0.002 0.26,0.075 0.304,0.125 0.073,0.085 0.11,0.206 0.11,0.314 0,0.048 -0.006,0.181 -0.098,0.292 C 16.291,0.06 16.179,0.108 16.06,0.108 15.923,0.11 15.83,0.043 15.792,0.01 L 15.74,-0.046 c 0.01,0.219 0.046,0.35 0.108,0.431 0.054,0.071 0.121,0.108 0.212,0.108 0.09,0 0.142,-0.037 0.169,-0.061 l 0.037,-0.041 c 0.031,-0.042 0.046,-0.096 0.056,-0.146 z m -0.697,-0.575 c -10e-4,0.196 0.12,0.273 0.195,0.3 0.042,0.014 0.081,0.015 0.096,0.015 0.135,0 0.235,-0.078 0.274,-0.204 0.008,-0.021 0.017,-0.061 0.017,-0.115 0,-0.041 -0.006,-0.227 -0.16,-0.303 -0.052,-0.023 -0.104,-0.025 -0.123,-0.025 -0.181,0 -0.254,0.135 -0.276,0.193 -0.023,0.058 -0.023,0.117 -0.023,0.139 m 1.81,-0.318 h -0.687 l 0.289,0.254 c 0.127,0.113 0.308,0.274 0.373,0.438 0.029,0.073 0.031,0.136 0.031,0.165 0,0.039 -0.006,0.189 -0.111,0.283 -0.103,0.09 -0.241,0.096 -0.278,0.096 -0.1,0 -0.171,-0.031 -0.204,-0.048 C 16.957,0.539 16.918,0.518 16.882,0.48 16.772,0.357 16.77,0.17 16.768,0.13 l 0.133,-0.012 c 0,0.025 0.002,0.181 0.081,0.275 0.029,0.037 0.088,0.087 0.198,0.087 0.017,0 0.067,0 0.116,-0.022 0.048,-0.021 0.144,-0.088 0.144,-0.234 0,-0.156 -0.1,-0.281 -0.204,-0.384 -0.075,-0.075 -0.154,-0.145 -0.233,-0.216 l -0.283,-0.25 v -0.125 h 0.841 z m 0.189,0.208 h 0.58 v -0.32 h 0.128 v 0.32 h 0.191 v 0.111 h -0.191 v 0.903 h -0.09 L 17.75,-0.32 Z m 0.127,0.111 0.462,0.686 -0.009,-0.686 z m 2.37,-0.319 H 19.56 l 0.289,0.254 c 0.127,0.113 0.308,0.274 0.373,0.438 0.029,0.073 0.031,0.136 0.031,0.165 0,0.039 -0.006,0.189 -0.112,0.283 -0.102,0.09 -0.24,0.096 -0.277,0.096 -0.1,0 -0.171,-0.031 -0.204,-0.048 C 19.643,0.539 19.604,0.518 19.567,0.48 19.458,0.357 19.456,0.17 19.454,0.13 l 0.133,-0.012 c 0,0.025 0.002,0.181 0.08,0.275 0.029,0.037 0.089,0.087 0.199,0.087 0.017,0 0.067,0 0.115,-0.022 0.049,-0.021 0.145,-0.088 0.145,-0.234 0,-0.156 -0.1,-0.281 -0.204,-0.384 -0.075,-0.075 -0.154,-0.145 -0.233,-0.216 l -0.283,-0.25 v -0.125 h 0.841 z m 0.268,0.568 c -0.002,-0.285 0.065,-0.691 0.447,-0.691 0.103,0 0.169,0.029 0.204,0.048 0.142,0.079 0.25,0.277 0.25,0.624 0,0.1 -0.006,0.188 -0.029,0.288 -0.018,0.085 -0.085,0.397 -0.418,0.397 -0.162,0 -0.248,-0.077 -0.293,-0.123 -0.088,-0.096 -0.159,-0.256 -0.161,-0.543 m 0.13,-0.029 c 0,0.277 0.043,0.429 0.151,0.518 0.067,0.058 0.142,0.064 0.175,0.064 0.027,0 0.091,-0.004 0.152,-0.047 0.1,-0.069 0.129,-0.206 0.135,-0.233 0.027,-0.111 0.027,-0.231 0.027,-0.265 0,-0.024 0.004,-0.26 -0.062,-0.409 -0.046,-0.107 -0.134,-0.181 -0.258,-0.181 -0.142,0 -0.213,0.099 -0.239,0.139 -0.071,0.117 -0.078,0.283 -0.081,0.414" />
        </g>
        <g
           transform="translate(175.0577,-2.5511)"
           id="g35660">
          <path
             id="path35662"
             style="fill:#00ade7;fill-opacity:1;fill-rule:nonzero;stroke:none"
             d="m 0,0 h -0.63 v 0.493 h 0.699 v 0.114 h -0.831 v -1.358 h 0.132 v 0.638 H 0 Z m 0.133,-0.243 c 0,-0.127 0.037,-0.285 0.117,-0.389 0.108,-0.132 0.253,-0.138 0.314,-0.138 0.141,0 0.224,0.052 0.268,0.088 0.167,0.139 0.171,0.382 0.171,0.436 0,0.052 -0.002,0.352 -0.229,0.471 C 0.693,0.266 0.609,0.27 0.58,0.27 0.451,0.27 0.323,0.219 0.243,0.118 0.164,0.02 0.133,-0.119 0.133,-0.243 m 0.121,-0.013 c -0.004,0.318 0.162,0.42 0.316,0.42 0.11,0 0.168,-0.044 0.2,-0.077 0.116,-0.11 0.114,-0.304 0.114,-0.337 0,-0.224 -0.091,-0.339 -0.181,-0.385 -0.056,-0.029 -0.114,-0.031 -0.135,-0.031 -0.029,0 -0.102,0.004 -0.168,0.05 -0.077,0.054 -0.142,0.16 -0.146,0.36 M 1.35,0.245 H 1.229 V -0.751 H 1.35 v 0.516 c 0,0.093 0,0.193 0.055,0.276 0.072,0.107 0.185,0.113 0.228,0.113 0.036,0 0.173,0 0.216,-0.127 0.015,-0.044 0.017,-0.1 0.019,-0.198 v -0.58 h 0.123 v 0.634 C 1.989,0.014 1.983,0.15 1.85,0.222 1.775,0.262 1.683,0.264 1.66,0.264 1.619,0.264 1.482,0.262 1.386,0.166 L 1.352,0.121 Z m 2.522,-0.996 v 0.52 H 4.39 v 0.083 H 3.872 v 0.52 H 3.788 v -0.52 H 3.272 v -0.083 h 0.516 v -0.52 z m 0.688,0.32 h 0.58 v -0.32 h 0.128 v 0.32 H 5.459 V -0.32 H 5.268 V 0.583 H 5.178 L 4.56,-0.32 Z M 4.687,-0.32 5.149,0.366 5.14,-0.32 Z M 5.73,-0.414 C 5.74,-0.502 5.767,-0.579 5.829,-0.647 5.925,-0.751 6.05,-0.762 6.1,-0.762 c 0.04,0 0.156,0.008 0.254,0.082 0.049,0.039 0.081,0.083 0.093,0.102 0.1,0.153 0.113,0.378 0.117,0.416 0.004,0.046 0.006,0.093 0.006,0.139 C 6.57,0.264 6.497,0.418 6.393,0.51 6.295,0.597 6.179,0.603 6.131,0.603 6.056,0.603 5.853,0.585 5.76,0.372 5.719,0.283 5.717,0.198 5.717,0.166 c 0,-0.064 0.016,-0.308 0.237,-0.403 0.027,-0.011 0.085,-0.031 0.163,-0.032 0.16,0.001 0.253,0.079 0.295,0.123 l 0.027,0.033 c 0,-0.022 -0.004,-0.266 -0.09,-0.409 -0.026,-0.038 -0.091,-0.133 -0.228,-0.133 -0.052,0 -0.173,0.014 -0.235,0.149 -0.013,0.032 -0.023,0.065 -0.029,0.1 z M 6.426,0.162 C 6.427,0.029 6.376,-0.039 6.333,-0.077 6.256,-0.15 6.171,-0.156 6.133,-0.156 c -0.125,0 -0.226,0.075 -0.268,0.191 -0.008,0.023 -0.021,0.067 -0.021,0.131 0,0.123 0.05,0.256 0.175,0.306 C 6.065,0.491 6.11,0.491 6.129,0.491 6.183,0.491 6.22,0.48 6.243,0.472 6.312,0.443 6.426,0.355 6.426,0.162 M 7.721,0.609 C 7.586,0.426 7.473,0.254 7.421,0.027 7.411,-0.019 7.392,-0.111 7.392,-0.235 c 0,-0.248 0.075,-0.414 0.121,-0.5 0.039,-0.077 0.089,-0.16 0.202,-0.304 h 0.098 c -0.046,0.067 -0.092,0.134 -0.131,0.208 -0.048,0.09 -0.155,0.317 -0.155,0.61 0,0.123 0.021,0.387 0.188,0.674 0.031,0.056 0.068,0.106 0.104,0.156 z m 0.206,-0.68 c -0.002,-0.285 0.066,-0.691 0.447,-0.691 0.104,0 0.169,0.029 0.204,0.048 0.142,0.079 0.25,0.277 0.25,0.624 0,0.1 -0.006,0.188 -0.029,0.288 C 8.782,0.283 8.715,0.595 8.382,0.595 8.22,0.595 8.133,0.518 8.089,0.472 8,0.376 7.929,0.216 7.927,-0.071 M 8.058,-0.1 c 0,0.277 0.042,0.429 0.15,0.518 0.068,0.058 0.143,0.064 0.176,0.064 0.027,0 0.09,-0.004 0.152,-0.047 0.1,-0.069 0.129,-0.206 0.135,-0.233 0.027,-0.111 0.027,-0.231 0.027,-0.265 0,-0.024 0.003,-0.26 -0.062,-0.409 -0.047,-0.107 -0.135,-0.181 -0.258,-0.181 -0.143,0 -0.214,0.099 -0.239,0.139 C 8.068,-0.397 8.06,-0.231 8.058,-0.1 m 0.986,-0.939 c 0.141,0.188 0.252,0.362 0.304,0.594 0.023,0.112 0.025,0.203 0.025,0.249 0,0.242 -0.067,0.435 -0.198,0.635 C 9.137,0.497 9.094,0.553 9.052,0.609 H 8.953 C 8.998,0.541 9.044,0.476 9.083,0.405 9.223,0.145 9.24,-0.102 9.24,-0.21 9.24,-0.539 9.106,-0.791 9.046,-0.891 9.015,-0.943 8.98,-0.991 8.946,-1.039 Z m 0.645,1.507 h 0.67 C 10.301,0.385 10.13,0.141 10.01,-0.142 9.976,-0.229 9.881,-0.473 9.839,-0.751 h 0.156 c 0.009,0.133 0.029,0.222 0.042,0.279 0.071,0.322 0.216,0.58 0.275,0.676 0.06,0.097 0.128,0.187 0.197,0.276 v 0.101 h -0.82 z m 0.88,-0.814 c 0.002,-0.043 0.008,-0.112 0.056,-0.201 0.034,-0.061 0.067,-0.096 0.09,-0.115 0.116,-0.1 0.268,-0.102 0.314,-0.102 0.24,0 0.354,0.136 0.396,0.227 0.033,0.071 0.035,0.133 0.035,0.163 0,0.128 -0.056,0.236 -0.164,0.303 -0.038,0.025 -0.065,0.032 -0.084,0.038 l 0.038,0.014 c 0.06,0.027 0.156,0.108 0.156,0.273 0,0.218 -0.175,0.343 -0.377,0.343 -0.062,0 -0.278,-0.016 -0.372,-0.212 -0.034,-0.071 -0.042,-0.15 -0.044,-0.173 l 0.131,-0.016 c 0.006,0.05 0.011,0.076 0.019,0.101 0.021,0.059 0.081,0.185 0.26,0.185 0.141,0 0.206,-0.083 0.231,-0.133 0.021,-0.045 0.023,-0.083 0.023,-0.103 0,-0.077 -0.034,-0.125 -0.054,-0.146 -0.086,-0.102 -0.254,-0.092 -0.279,-0.092 v -0.11 h 0.039 c 0.013,0 0.098,0.002 0.161,-0.017 0.075,-0.023 0.118,-0.071 0.135,-0.095 0.046,-0.059 0.048,-0.123 0.048,-0.152 0,-0.094 -0.05,-0.287 -0.306,-0.287 -0.198,0 -0.304,0.122 -0.318,0.314 z m 1.126,0.275 c -0.002,-0.285 0.066,-0.691 0.447,-0.691 0.104,0 0.169,0.029 0.204,0.048 0.142,0.079 0.25,0.277 0.25,0.624 0,0.1 -0.006,0.188 -0.029,0.288 -0.017,0.085 -0.085,0.397 -0.418,0.397 -0.161,0 -0.248,-0.077 -0.292,-0.123 -0.089,-0.096 -0.16,-0.256 -0.162,-0.543 M 11.826,-0.1 c 0,0.277 0.042,0.429 0.15,0.518 0.067,0.058 0.142,0.064 0.175,0.064 0.027,0 0.091,-0.004 0.153,-0.047 0.1,-0.069 0.128,-0.206 0.134,-0.233 0.027,-0.111 0.027,-0.231 0.027,-0.265 0,-0.024 0.004,-0.26 -0.061,-0.409 -0.047,-0.107 -0.135,-0.181 -0.258,-0.181 -0.143,0 -0.214,0.099 -0.239,0.139 -0.071,0.117 -0.079,0.283 -0.081,0.414 m 1.057,-0.027 h 0.11 l 0.04,0.052 c 0.029,0.031 0.11,0.1 0.235,0.1 0.069,0 0.119,-0.023 0.142,-0.035 0.151,-0.08 0.162,-0.242 0.162,-0.292 0,-0.131 -0.061,-0.26 -0.183,-0.316 -0.025,-0.011 -0.069,-0.029 -0.135,-0.029 -0.104,0 -0.165,0.041 -0.194,0.069 -0.031,0.029 -0.079,0.097 -0.089,0.203 l -0.123,-0.016 c 0.01,-0.061 0.033,-0.246 0.222,-0.329 0.08,-0.037 0.156,-0.038 0.188,-0.038 0.195,0 0.349,0.103 0.414,0.288 0.027,0.077 0.027,0.145 0.027,0.177 0,0.168 -0.075,0.326 -0.235,0.397 -0.052,0.023 -0.107,0.033 -0.165,0.035 -0.106,0 -0.187,-0.039 -0.22,-0.056 C 13.06,0.071 13.052,0.068 13.022,0.043 l 0.071,0.427 h 0.541 v 0.117 h -0.641 z m 1.629,-0.287 c 0.009,-0.088 0.036,-0.165 0.098,-0.233 0.096,-0.104 0.221,-0.115 0.271,-0.115 0.041,0 0.156,0.008 0.255,0.082 0.048,0.039 0.08,0.083 0.092,0.102 0.1,0.153 0.113,0.378 0.117,0.416 0.004,0.046 0.006,0.093 0.006,0.139 0,0.287 -0.073,0.441 -0.177,0.533 -0.098,0.087 -0.214,0.093 -0.262,0.093 -0.075,0 -0.277,-0.018 -0.371,-0.231 C 14.5,0.283 14.498,0.198 14.498,0.166 c 0,-0.064 0.016,-0.308 0.237,-0.403 0.027,-0.011 0.085,-0.031 0.164,-0.032 0.16,0.001 0.252,0.079 0.294,0.123 l 0.027,0.033 c 0,-0.022 -0.004,-0.266 -0.09,-0.409 -0.025,-0.038 -0.091,-0.133 -0.228,-0.133 -0.051,0 -0.173,0.014 -0.234,0.149 -0.014,0.032 -0.024,0.065 -0.029,0.1 z m 0.695,0.576 c 0.002,-0.133 -0.05,-0.201 -0.093,-0.239 -0.077,-0.073 -0.162,-0.079 -0.2,-0.079 -0.125,0 -0.225,0.075 -0.268,0.191 -0.007,0.023 -0.021,0.067 -0.021,0.131 0,0.123 0.05,0.256 0.176,0.306 0.046,0.019 0.09,0.019 0.109,0.019 0.054,0 0.091,-0.011 0.114,-0.019 0.069,-0.029 0.183,-0.117 0.183,-0.31 m 1.241,0.092 C 16.422,0.466 16.295,0.547 16.21,0.578 16.187,0.585 16.141,0.603 16.077,0.603 16.058,0.603 16.013,0.599 15.963,0.585 15.933,0.578 15.9,0.566 15.873,0.551 15.798,0.509 15.736,0.435 15.698,0.358 15.655,0.272 15.609,0.106 15.609,-0.133 c 0,-0.269 0.06,-0.414 0.146,-0.508 0.106,-0.116 0.233,-0.121 0.293,-0.121 0.166,-0.002 0.26,0.075 0.304,0.125 0.073,0.085 0.11,0.206 0.11,0.314 0,0.048 -0.006,0.181 -0.098,0.292 C 16.291,0.06 16.179,0.108 16.06,0.108 15.923,0.11 15.83,0.043 15.792,0.01 L 15.74,-0.046 c 0.01,0.219 0.046,0.35 0.108,0.431 0.054,0.071 0.121,0.108 0.212,0.108 0.09,0 0.142,-0.037 0.169,-0.061 l 0.037,-0.041 c 0.031,-0.042 0.046,-0.096 0.056,-0.146 z m -0.697,-0.575 c -10e-4,0.196 0.12,0.273 0.195,0.3 0.042,0.014 0.081,0.015 0.096,0.015 0.135,0 0.235,-0.078 0.274,-0.204 0.008,-0.021 0.017,-0.061 0.017,-0.115 0,-0.041 -0.006,-0.227 -0.16,-0.303 -0.052,-0.023 -0.104,-0.025 -0.123,-0.025 -0.181,0 -0.254,0.135 -0.276,0.193 -0.023,0.058 -0.023,0.117 -0.023,0.139 m 1.81,-0.318 h -0.687 l 0.289,0.254 c 0.127,0.113 0.308,0.274 0.373,0.438 0.029,0.073 0.031,0.136 0.031,0.165 0,0.039 -0.006,0.189 -0.111,0.283 -0.103,0.09 -0.241,0.096 -0.278,0.096 -0.1,0 -0.171,-0.031 -0.204,-0.048 C 16.957,0.539 16.918,0.518 16.882,0.48 16.772,0.357 16.77,0.17 16.768,0.13 l 0.133,-0.012 c 0,0.025 0.002,0.181 0.081,0.275 0.029,0.037 0.088,0.087 0.198,0.087 0.017,0 0.067,0 0.116,-0.022 0.048,-0.021 0.144,-0.088 0.144,-0.234 0,-0.156 -0.1,-0.281 -0.204,-0.384 -0.075,-0.075 -0.154,-0.145 -0.233,-0.216 l -0.283,-0.25 v -0.125 h 0.841 z m 0.189,0.208 h 0.58 v -0.32 h 0.128 v 0.32 h 0.191 v 0.111 h -0.191 v 0.903 h -0.09 L 17.75,-0.32 Z m 0.127,0.111 0.462,0.686 -0.009,-0.686 z m 1.516,0.249 c -0.003,-0.285 0.065,-0.691 0.446,-0.691 0.104,0 0.169,0.029 0.204,0.048 0.142,0.079 0.25,0.277 0.25,0.624 0,0.1 -0.006,0.188 -0.029,0.288 -0.017,0.085 -0.084,0.397 -0.417,0.397 -0.162,0 -0.249,-0.077 -0.293,-0.123 -0.089,-0.096 -0.16,-0.256 -0.161,-0.543 m 0.13,-0.029 c 0,0.277 0.043,0.429 0.15,0.518 0.068,0.058 0.143,0.064 0.176,0.064 0.027,0 0.09,-0.004 0.152,-0.047 0.1,-0.069 0.129,-0.206 0.135,-0.233 0.027,-0.111 0.027,-0.231 0.027,-0.265 0,-0.024 0.003,-0.26 -0.062,-0.409 -0.046,-0.107 -0.135,-0.181 -0.258,-0.181 -0.143,0 -0.214,0.099 -0.239,0.139 -0.071,0.117 -0.079,0.283 -0.081,0.414" />
        </g>
        <g
           transform="translate(174.2974,-0.9914)"
           id="g35664">
          <path
             id="path35666"
             style="fill:#00ade7;fill-opacity:1;fill-rule:nonzero;stroke:none"
             d="m 0,0 h 0.285 c 0.204,0.002 0.304,0.008 0.4,0.046 0.098,0.037 0.172,0.102 0.229,0.19 0.054,0.083 0.112,0.218 0.112,0.446 0,0.302 -0.106,0.473 -0.214,0.556 C 0.643,1.365 0.385,1.359 0.19,1.357 H 0 Z M 0.133,0.115 V 1.246 H 0.264 C 0.412,1.246 0.472,1.244 0.547,1.227 0.83,1.159 0.874,0.923 0.888,0.825 0.892,0.802 0.897,0.752 0.897,0.688 0.897,0.454 0.828,0.204 0.57,0.135 0.491,0.113 0.429,0.115 0.346,0.115 Z M 1.269,0.514 H 1.746 V 0.625 H 1.269 Z M 2.174,0.73 C 2.142,0.72 2.127,0.71 2.114,0.705 2.05,0.668 1.945,0.576 1.945,0.389 c 0,-0.102 0.032,-0.172 0.051,-0.206 0.11,-0.197 0.343,-0.2 0.401,-0.2 0.242,0 0.36,0.128 0.404,0.219 C 2.826,0.256 2.838,0.315 2.838,0.375 2.838,0.518 2.78,0.597 2.74,0.639 2.682,0.699 2.634,0.716 2.599,0.73 2.626,0.739 2.636,0.745 2.649,0.754 2.699,0.787 2.782,0.862 2.782,1.012 2.782,1.144 2.711,1.35 2.393,1.35 2.075,1.35 2,1.155 2,1.017 2,0.837 2.112,0.757 2.174,0.73 m 0.215,0.051 c -0.081,0 -0.154,0.018 -0.21,0.079 -0.04,0.044 -0.056,0.094 -0.056,0.153 0,0.052 0.014,0.167 0.155,0.21 0.034,0.011 0.074,0.015 0.111,0.015 0.05,0 0.089,-0.008 0.106,-0.013 C 2.543,1.211 2.657,1.158 2.657,1.012 2.657,0.87 2.553,0.814 2.507,0.799 2.46,0.781 2.401,0.781 2.389,0.781 M 2.387,0.668 C 2.483,0.668 2.586,0.645 2.651,0.566 2.713,0.495 2.713,0.414 2.713,0.379 2.713,0.366 2.711,0.31 2.693,0.264 2.655,0.169 2.562,0.129 2.534,0.117 2.474,0.096 2.408,0.096 2.389,0.096 c -0.264,0 -0.318,0.183 -0.318,0.287 0,0.046 0.016,0.214 0.178,0.268 0.053,0.017 0.125,0.017 0.138,0.017 M 3.105,0.337 C 3.115,0.248 3.142,0.171 3.203,0.104 3.3,0 3.425,-0.012 3.475,-0.012 c 0.04,0 0.156,0.008 0.254,0.083 C 3.777,0.11 3.81,0.154 3.822,0.173 3.921,0.325 3.935,0.55 3.939,0.589 3.943,0.635 3.945,0.681 3.945,0.728 3.945,1.015 3.872,1.169 3.768,1.261 3.67,1.347 3.554,1.353 3.506,1.353 3.431,1.353 3.228,1.336 3.134,1.122 3.094,1.034 3.092,0.949 3.092,0.916 3.092,0.853 3.107,0.608 3.328,0.514 3.356,0.502 3.413,0.483 3.492,0.481 3.652,0.483 3.745,0.56 3.787,0.604 L 3.814,0.637 C 3.814,0.616 3.81,0.371 3.724,0.229 3.698,0.19 3.633,0.096 3.496,0.096 3.444,0.096 3.323,0.11 3.261,0.244 3.248,0.277 3.238,0.31 3.232,0.344 Z M 3.801,0.913 C 3.802,0.78 3.751,0.712 3.708,0.674 3.631,0.6 3.546,0.595 3.508,0.595 3.383,0.595 3.282,0.67 3.24,0.785 3.232,0.808 3.219,0.853 3.219,0.916 c 0,0.124 0.05,0.256 0.175,0.306 0.046,0.02 0.091,0.02 0.11,0.02 0.054,0 0.09,-0.012 0.114,-0.02 C 3.687,1.194 3.801,1.105 3.801,0.913 M 4.572,1.336 H 4.486 C 4.476,1.288 4.459,1.249 4.432,1.209 4.384,1.138 4.32,1.089 4.153,1.082 V 0.98 H 4.444 V 0 H 4.572 Z M 5.004,0.624 h 0.109 l 0.041,0.052 c 0.029,0.03 0.11,0.1 0.235,0.1 0.069,0 0.119,-0.023 0.142,-0.035 C 5.681,0.66 5.693,0.499 5.693,0.448 5.693,0.318 5.631,0.188 5.51,0.133 5.485,0.121 5.441,0.104 5.375,0.104 5.271,0.104 5.21,0.144 5.181,0.173 5.15,0.202 5.102,0.269 5.092,0.375 L 4.969,0.36 C 4.979,0.298 5.002,0.113 5.19,0.031 c 0.081,-0.037 0.156,-0.039 0.189,-0.039 0.195,0 0.349,0.104 0.414,0.289 C 5.82,0.358 5.82,0.425 5.82,0.458 5.82,0.626 5.745,0.783 5.585,0.855 5.533,0.878 5.477,0.887 5.42,0.889 5.314,0.889 5.233,0.851 5.2,0.834 5.181,0.822 5.173,0.818 5.142,0.793 L 5.213,1.221 H 5.755 V 1.338 H 5.113 Z m 1.122,0 h 0.11 l 0.04,0.052 c 0.029,0.03 0.11,0.1 0.235,0.1 0.069,0 0.12,-0.023 0.143,-0.035 C 6.804,0.66 6.816,0.499 6.816,0.448 6.816,0.318 6.754,0.188 6.633,0.133 6.607,0.121 6.563,0.104 6.498,0.104 6.394,0.104 6.332,0.144 6.303,0.173 6.272,0.202 6.224,0.269 6.215,0.375 L 6.092,0.36 C 6.101,0.298 6.124,0.113 6.313,0.031 c 0.081,-0.037 0.156,-0.039 0.189,-0.039 0.194,0 0.348,0.104 0.413,0.289 0.027,0.077 0.027,0.144 0.027,0.177 0,0.168 -0.075,0.325 -0.234,0.397 C 6.656,0.878 6.6,0.887 6.542,0.889 6.436,0.889 6.355,0.851 6.322,0.834 6.303,0.822 6.296,0.818 6.265,0.793 L 6.336,1.221 H 6.877 V 1.338 H 6.236 Z M 8.675,0.113 H 7.911 V 0.639 H 8.608 V 0.753 H 7.911 V 1.244 H 8.654 V 1.359 H 7.778 V 0 H 8.675 Z M 9.01,0.995 H 8.885 V 0 H 9.01 v 0.497 c 0.002,0.135 0.004,0.192 0.031,0.256 l 0.027,0.046 c 0.008,0.012 0.046,0.056 0.094,0.077 0.054,0.023 0.11,0.023 0.131,0.021 V 1.015 C 9.18,1.016 9.106,0.974 9.074,0.945 9.045,0.92 9.012,0.874 9.01,0.87 Z M 9.447,0 h 0.122 v 0.133 c 0.059,-0.068 0.111,-0.116 0.2,-0.139 0.048,-0.011 0.088,-0.011 0.109,-0.011 0.078,0 0.128,0.013 0.159,0.025 0.103,0.036 0.159,0.113 0.178,0.144 0.066,0.102 0.085,0.221 0.085,0.339 0,0.138 -0.029,0.287 -0.127,0.395 -0.104,0.115 -0.231,0.121 -0.289,0.121 -0.183,0 -0.271,-0.1 -0.315,-0.154 V 1.359 H 9.447 Z m 0.116,0.481 c -0.004,0.202 0.057,0.308 0.134,0.364 0.07,0.054 0.147,0.058 0.178,0.058 0.065,0 0.106,-0.017 0.129,-0.029 0.015,-0.01 0.052,-0.031 0.084,-0.071 0.093,-0.114 0.089,-0.275 0.089,-0.312 0,-0.168 -0.046,-0.26 -0.094,-0.318 C 10.027,0.108 9.963,0.083 9.875,0.083 9.788,0.083 9.738,0.108 9.705,0.129 9.667,0.156 9.642,0.188 9.632,0.202 9.597,0.254 9.566,0.341 9.563,0.481 m 1.072,0.212 c 0.004,0.056 0.014,0.094 0.025,0.116 l 0.033,0.042 c 0.065,0.062 0.162,0.06 0.185,0.06 0.019,0 0.061,0 0.111,-0.016 0.05,-0.015 0.118,-0.054 0.118,-0.177 0,-0.04 -0.006,-0.056 -0.019,-0.071 C 11.057,0.612 10.997,0.605 10.903,0.585 L 10.789,0.566 C 10.683,0.543 10.572,0.522 10.508,0.419 10.472,0.36 10.472,0.294 10.472,0.271 10.47,0.084 10.596,0.019 10.664,-0.002 c 0.04,-0.013 0.077,-0.017 0.121,-0.017 0.031,0 0.181,0.002 0.276,0.092 0.038,0.035 0.046,0.062 0.05,0.085 0,-0.012 -0.008,-0.095 0.05,-0.135 0.042,-0.029 0.115,-0.027 0.163,-0.027 V 0.1 c -0.015,0 -0.075,-0.002 -0.092,0.056 -0.01,0.027 -0.008,0.054 -0.01,0.111 v 0.386 c 0,0.09 0.004,0.186 -0.057,0.26 -0.087,0.102 -0.277,0.098 -0.293,0.098 -0.043,0 -0.243,0.004 -0.327,-0.158 C 10.518,0.805 10.508,0.749 10.502,0.695 Z m 0.322,-0.192 c 0.052,0.011 0.104,0.023 0.154,0.04 V 0.472 C 11.113,0.327 11.115,0.204 10.97,0.125 10.897,0.084 10.828,0.081 10.799,0.081 c -0.083,0 -0.158,0.032 -0.191,0.109 -0.013,0.033 -0.015,0.066 -0.015,0.079 0,0.043 0.013,0.126 0.117,0.172 0.037,0.015 0.075,0.025 0.158,0.042 z m 1.322,0.208 c -0.013,0.073 -0.031,0.107 -0.05,0.14 -0.094,0.156 -0.264,0.166 -0.32,0.166 -0.107,0 -0.202,-0.033 -0.281,-0.108 -0.15,-0.143 -0.153,-0.349 -0.153,-0.41 0,-0.178 0.057,-0.376 0.227,-0.468 0.086,-0.046 0.165,-0.046 0.202,-0.046 0.152,0 0.239,0.065 0.283,0.109 0.071,0.073 0.1,0.179 0.108,0.206 L 12.171,0.321 C 12.148,0.225 12.106,0.14 12.008,0.104 11.962,0.087 11.921,0.084 11.904,0.084 c -0.025,0 -0.087,0.003 -0.149,0.041 -0.028,0.019 -0.057,0.048 -0.077,0.075 -0.075,0.108 -0.077,0.26 -0.077,0.291 0,0.148 0.043,0.248 0.076,0.298 0.075,0.114 0.181,0.124 0.231,0.124 0.127,0 0.192,-0.081 0.215,-0.122 0.014,-0.019 0.027,-0.048 0.035,-0.1 z m 0.297,0.65 H 12.453 V 0 h 0.123 v 0.516 c 0,0.094 -0.002,0.195 0.056,0.277 0.073,0.108 0.186,0.112 0.229,0.112 0.125,0 0.181,-0.058 0.204,-0.108 C 13.09,0.741 13.092,0.676 13.09,0.554 V 0 h 0.125 v 0.629 c 0,0.076 0,0.166 -0.033,0.235 -0.009,0.018 -0.034,0.066 -0.082,0.097 -0.035,0.023 -0.106,0.055 -0.208,0.055 -0.062,0 -0.21,-0.007 -0.316,-0.146 z" />
        </g>
        <g
           transform="translate(175.1944,1.4323)"
           id="g35668">
          <path
             id="path35670"
             style="fill:#00ade7;fill-opacity:1;fill-rule:nonzero;stroke:none"
             d="m 0,0 h -0.764 v 0.526 h 0.697 V 0.639 H -0.764 V 1.13 h 0.743 V 1.246 H -0.897 V -0.113 H 0 Z M 0.335,0.882 H 0.21 V -0.113 H 0.335 V 0.383 C 0.337,0.518 0.339,0.576 0.366,0.639 L 0.393,0.686 C 0.4,0.697 0.439,0.741 0.487,0.763 0.541,0.786 0.597,0.786 0.618,0.784 V 0.901 C 0.504,0.903 0.431,0.861 0.398,0.832 0.37,0.807 0.337,0.761 0.335,0.757 Z M 0.893,1.246 H 0.766 v -1.359 h 0.127 z m 1.09,-0.884 c 0,0.044 0.013,0.314 -0.161,0.455 C 1.723,0.897 1.608,0.901 1.563,0.901 1.375,0.901 1.271,0.807 1.225,0.745 1.178,0.686 1.121,0.568 1.121,0.387 1.121,0.349 1.123,0.135 1.238,0 c 0.11,-0.127 0.271,-0.135 0.324,-0.135 0.19,0 0.35,0.091 0.404,0.281 L 1.839,0.169 C 1.822,0.1 1.789,0.054 1.729,0.015 1.656,-0.029 1.594,-0.029 1.56,-0.029 1.496,-0.029 1.458,-0.017 1.432,-0.006 1.382,0.015 1.348,0.052 1.336,0.065 1.242,0.173 1.244,0.324 1.242,0.362 Z M 1.248,0.466 c 0.005,0.044 0.011,0.073 0.017,0.091 0.011,0.044 0.029,0.077 0.038,0.092 0.022,0.038 0.043,0.064 0.056,0.075 0.075,0.069 0.168,0.073 0.201,0.073 0.196,0 0.294,-0.15 0.292,-0.331 z M 2.335,0.882 H 2.214 v -0.995 h 0.121 v 0.516 c 0,0.092 0,0.192 0.056,0.275 0.071,0.108 0.185,0.113 0.227,0.113 0.037,0 0.174,0 0.216,-0.127 C 2.85,0.62 2.852,0.564 2.854,0.466 V -0.113 H 2.977 V 0.52 C 2.974,0.651 2.969,0.788 2.836,0.859 2.761,0.899 2.668,0.901 2.645,0.901 2.605,0.901 2.468,0.899 2.372,0.803 L 2.337,0.759 Z M 3.26,-0.113 h 0.121 v 0.132 c 0.059,-0.067 0.112,-0.115 0.2,-0.138 0.048,-0.012 0.089,-0.012 0.11,-0.012 0.077,0 0.127,0.014 0.158,0.025 0.104,0.037 0.159,0.114 0.179,0.145 0.065,0.102 0.084,0.221 0.084,0.338 0,0.139 -0.029,0.287 -0.126,0.395 C 3.881,0.888 3.754,0.893 3.697,0.893 3.514,0.893 3.425,0.793 3.381,0.74 V 1.246 H 3.26 Z M 3.375,0.368 C 3.371,0.57 3.433,0.676 3.51,0.732 3.579,0.786 3.656,0.79 3.687,0.79 3.753,0.79 3.793,0.772 3.816,0.761 3.831,0.751 3.868,0.73 3.901,0.69 3.993,0.576 3.99,0.414 3.99,0.377 3.99,0.21 3.943,0.118 3.895,0.06 3.839,-0.006 3.776,-0.031 3.687,-0.031 3.6,-0.031 3.55,-0.006 3.517,0.015 3.479,0.042 3.454,0.075 3.444,0.089 3.41,0.141 3.379,0.227 3.375,0.368 M 4.447,0.58 c 0.004,0.056 0.014,0.094 0.025,0.115 l 0.033,0.043 c 0.066,0.061 0.162,0.059 0.185,0.059 0.019,0 0.062,0 0.112,-0.015 C 4.852,0.767 4.919,0.728 4.919,0.605 4.919,0.564 4.914,0.549 4.9,0.533 4.869,0.499 4.809,0.491 4.715,0.472 L 4.602,0.453 C 4.495,0.429 4.384,0.408 4.32,0.306 4.284,0.246 4.284,0.181 4.284,0.158 4.282,-0.029 4.409,-0.094 4.476,-0.115 c 0.041,-0.014 0.077,-0.018 0.122,-0.018 0.03,0 0.181,0.002 0.275,0.093 0.039,0.034 0.046,0.061 0.05,0.084 0,-0.011 -0.008,-0.094 0.05,-0.134 0.042,-0.029 0.115,-0.027 0.164,-0.027 v 0.104 C 5.121,-0.013 5.062,-0.015 5.044,0.042 5.035,0.069 5.037,0.096 5.035,0.154 v 0.385 c 0,0.091 0.003,0.187 -0.058,0.26 C 4.891,0.901 4.7,0.897 4.684,0.897 4.642,0.897 4.442,0.901 4.357,0.74 4.33,0.691 4.32,0.636 4.315,0.582 Z M 4.769,0.387 C 4.821,0.399 4.873,0.41 4.923,0.428 V 0.358 C 4.925,0.214 4.927,0.091 4.782,0.012 4.709,-0.029 4.64,-0.033 4.611,-0.033 4.528,-0.033 4.453,0 4.421,0.077 4.407,0.11 4.405,0.142 4.405,0.156 c 0,0.042 0.013,0.125 0.117,0.171 0.037,0.016 0.076,0.025 0.159,0.043 z M 6.092,0.595 C 6.078,0.668 6.061,0.703 6.042,0.736 5.947,0.892 5.778,0.901 5.722,0.901 5.614,0.901 5.52,0.868 5.441,0.793 5.291,0.651 5.287,0.445 5.287,0.383 c 0,-0.177 0.058,-0.375 0.227,-0.467 0.087,-0.047 0.166,-0.047 0.202,-0.047 0.152,0 0.239,0.066 0.283,0.11 0.071,0.073 0.1,0.179 0.108,0.206 L 5.984,0.208 C 5.961,0.112 5.918,0.027 5.82,-0.009 5.774,-0.027 5.734,-0.029 5.716,-0.029 5.691,-0.029 5.63,-0.027 5.568,0.012 5.539,0.031 5.51,0.06 5.491,0.087 5.416,0.195 5.414,0.347 5.414,0.377 5.414,0.526 5.456,0.626 5.489,0.676 5.564,0.79 5.67,0.799 5.72,0.799 5.847,0.799 5.913,0.718 5.936,0.678 5.949,0.659 5.963,0.63 5.97,0.578 Z M 6.388,1.246 H 6.265 v -1.359 h 0.123 v 0.516 c 0,0.094 -0.002,0.194 0.056,0.277 0.073,0.108 0.187,0.111 0.229,0.111 0.125,0 0.181,-0.057 0.204,-0.107 C 6.902,0.628 6.904,0.562 6.902,0.441 v -0.554 h 0.125 v 0.629 c 0,0.075 0,0.166 -0.032,0.235 C 6.985,0.768 6.96,0.817 6.912,0.847 6.877,0.87 6.806,0.903 6.704,0.903 6.642,0.903 6.494,0.895 6.388,0.757 Z M 7.253,0.191 C 7.266,0.112 7.278,0.075 7.295,0.042 7.382,-0.133 7.58,-0.133 7.63,-0.133 c 0.187,0 0.277,0.075 0.318,0.15 0.023,0.043 0.031,0.089 0.031,0.135 0,0.054 -0.01,0.087 -0.016,0.106 C 7.932,0.345 7.873,0.389 7.792,0.422 7.759,0.435 7.726,0.445 7.694,0.455 L 7.617,0.476 C 7.561,0.491 7.503,0.506 7.463,0.555 7.439,0.582 7.432,0.609 7.432,0.643 c 0,0.033 0.007,0.064 0.027,0.091 0.025,0.033 0.073,0.073 0.171,0.073 0.031,0 0.143,-0.002 0.189,-0.104 C 7.836,0.664 7.84,0.624 7.84,0.61 L 7.963,0.626 C 7.961,0.659 7.952,0.764 7.867,0.836 7.784,0.905 7.661,0.907 7.636,0.907 7.468,0.907 7.309,0.83 7.309,0.639 7.309,0.618 7.311,0.572 7.334,0.522 7.378,0.42 7.466,0.393 7.563,0.364 L 7.64,0.345 C 7.707,0.326 7.782,0.306 7.827,0.246 7.848,0.218 7.857,0.187 7.857,0.15 7.857,0.071 7.819,0.037 7.794,0.017 7.763,-0.006 7.717,-0.029 7.634,-0.029 c -0.218,0 -0.245,0.15 -0.256,0.233 z M 8.24,0.776 V 0.131 c 0,-0.04 0,-0.085 0.012,-0.125 0.04,-0.131 0.177,-0.133 0.213,-0.133 0.045,0 0.072,0.006 0.089,0.01 v 0.111 l -0.06,-0.003 c -0.075,0 -0.117,0.038 -0.125,0.111 -0.004,0.024 -0.004,0.045 -0.004,0.068 0,0.035 0,0.067 -10e-4,0.102 V 0.776 H 8.546 V 0.884 H 8.364 V 1.203 H 8.24 V 0.884 H 8.102 V 0.776 Z M 8.879,0.882 H 8.755 V -0.113 H 8.879 V 0.383 C 8.881,0.518 8.883,0.576 8.91,0.639 l 0.027,0.047 c 0.008,0.011 0.046,0.055 0.095,0.077 0.053,0.023 0.109,0.023 0.13,0.021 V 0.901 C 9.049,0.903 8.976,0.861 8.943,0.832 8.914,0.807 8.881,0.761 8.879,0.757 Z M 9.382,0.58 C 9.386,0.636 9.396,0.674 9.407,0.695 L 9.44,0.738 c 0.065,0.061 0.161,0.059 0.185,0.059 0.019,0 0.061,0 0.111,-0.015 C 9.786,0.767 9.854,0.728 9.854,0.605 9.854,0.564 9.848,0.549 9.835,0.533 9.804,0.499 9.744,0.491 9.65,0.472 L 9.536,0.453 C 9.43,0.429 9.319,0.408 9.255,0.306 9.218,0.246 9.218,0.181 9.218,0.158 9.217,-0.029 9.343,-0.094 9.411,-0.115 c 0.04,-0.014 0.077,-0.018 0.121,-0.018 0.031,0 0.181,0.002 0.276,0.093 0.038,0.034 0.046,0.061 0.05,0.084 0,-0.011 -0.008,-0.094 0.05,-0.134 0.042,-0.029 0.115,-0.027 0.163,-0.027 v 0.104 c -0.015,0 -0.075,-0.002 -0.092,0.055 -0.01,0.027 -0.008,0.054 -0.01,0.112 v 0.385 c 0,0.091 0.004,0.187 -0.057,0.26 C 9.825,0.901 9.634,0.897 9.619,0.897 9.577,0.897 9.376,0.901 9.292,0.74 9.265,0.691 9.255,0.636 9.249,0.582 Z M 9.704,0.387 C 9.756,0.399 9.808,0.41 9.858,0.428 V 0.358 C 9.86,0.214 9.861,0.091 9.717,0.012 9.644,-0.029 9.574,-0.033 9.546,-0.033 9.463,-0.033 9.388,0 9.355,0.077 9.341,0.11 9.34,0.142 9.34,0.156 c 0,0.042 0.013,0.125 0.117,0.171 0.037,0.016 0.075,0.025 0.158,0.043 z m 0.698,0.377 c 0.002,0.181 -0.004,0.278 0.076,0.343 0.053,0.046 0.123,0.048 0.144,0.048 0.135,0 0.208,-0.082 0.21,-0.213 0,-0.156 -0.102,-0.21 -0.16,-0.226 C 10.645,0.709 10.599,0.703 10.533,0.703 l -0.002,-0.11 c 0.12,0.002 0.247,-0.015 0.314,-0.127 0.035,-0.056 0.047,-0.115 0.047,-0.179 0,-0.11 -0.037,-0.239 -0.154,-0.283 -0.043,-0.016 -0.093,-0.016 -0.106,-0.016 -0.047,0 -0.083,0.008 -0.099,0.012 l -0.002,-0.113 c 0.037,-0.01 0.056,-0.012 0.095,-0.012 0.019,0 0.094,0 0.16,0.025 0.04,0.016 0.083,0.042 0.113,0.073 0.079,0.079 0.114,0.2 0.114,0.308 0,0.043 -0.004,0.241 -0.15,0.335 -0.021,0.016 -0.048,0.029 -0.101,0.042 0.02,0.008 0.058,0.024 0.099,0.06 0.084,0.081 0.092,0.198 0.092,0.233 0,0.118 -0.056,0.193 -0.088,0.222 -0.085,0.081 -0.212,0.084 -0.243,0.084 -0.029,0 -0.117,-0.002 -0.199,-0.048 C 10.277,1.125 10.279,0.974 10.279,0.828 v -0.941 h 0.123 z m 1.65,-0.402 c 0,0.044 0.014,0.314 -0.161,0.455 -0.098,0.08 -0.214,0.084 -0.258,0.084 -0.189,0 -0.293,-0.094 -0.339,-0.156 C 11.248,0.686 11.19,0.568 11.19,0.387 11.19,0.349 11.192,0.135 11.307,0 c 0.11,-0.127 0.272,-0.135 0.324,-0.135 0.19,0 0.35,0.091 0.404,0.281 L 11.908,0.169 C 11.891,0.1 11.858,0.054 11.798,0.015 c -0.073,-0.044 -0.134,-0.044 -0.169,-0.044 -0.064,0 -0.102,0.012 -0.127,0.023 -0.05,0.021 -0.085,0.058 -0.096,0.071 -0.095,0.108 -0.093,0.259 -0.095,0.297 z m -0.735,0.104 c 0.006,0.044 0.011,0.073 0.017,0.091 0.012,0.044 0.029,0.077 0.039,0.092 0.021,0.038 0.042,0.064 0.056,0.075 0.075,0.069 0.167,0.073 0.2,0.073 0.196,0 0.295,-0.15 0.293,-0.331 z m 1.475,-0.26 h 0.579 V -0.113 H 13.5 v 0.319 h 0.191 V 0.318 H 13.5 V 1.221 H 13.41 L 12.792,0.318 Z m 0.127,0.112 0.462,0.685 -0.01,-0.685 z m 1.234,0.298 C 14.122,0.607 14.107,0.597 14.093,0.591 14.03,0.555 13.924,0.462 13.924,0.275 c 0,-0.102 0.032,-0.171 0.052,-0.206 0.109,-0.196 0.342,-0.2 0.4,-0.2 0.243,0 0.36,0.129 0.404,0.22 0.025,0.053 0.037,0.113 0.037,0.173 0,0.143 -0.058,0.221 -0.098,0.264 -0.058,0.06 -0.106,0.077 -0.141,0.09 0.027,0.01 0.037,0.016 0.051,0.025 0.05,0.033 0.132,0.108 0.132,0.257 0,0.133 -0.071,0.338 -0.389,0.338 -0.317,0 -0.392,-0.194 -0.392,-0.332 0,-0.18 0.111,-0.261 0.173,-0.288 m 0.215,0.052 c -0.08,0 -0.154,0.017 -0.21,0.079 -0.04,0.044 -0.055,0.094 -0.055,0.153 0,0.052 0.013,0.167 0.154,0.209 0.034,0.012 0.075,0.016 0.111,0.016 0.051,0 0.089,-0.008 0.107,-0.014 0.048,-0.013 0.161,-0.067 0.161,-0.213 0,-0.142 -0.104,-0.197 -0.15,-0.213 C 14.44,0.668 14.38,0.668 14.368,0.668 M 14.367,0.555 c 0.096,0 0.198,-0.023 0.264,-0.102 0.061,-0.072 0.061,-0.152 0.061,-0.187 0,-0.014 -0.002,-0.07 -0.019,-0.116 -0.039,-0.094 -0.131,-0.135 -0.16,-0.146 -0.06,-0.021 -0.125,-0.021 -0.145,-0.021 -0.263,0 -0.317,0.183 -0.317,0.287 0,0.046 0.015,0.213 0.177,0.267 0.054,0.018 0.125,0.018 0.139,0.018 m 0.61,-0.668 h 0.121 l 0.385,1.359 H 15.37 Z M 16.5,0.892 C 16.473,1.103 16.346,1.184 16.261,1.215 16.238,1.223 16.192,1.24 16.128,1.24 16.109,1.24 16.065,1.236 16.014,1.223 15.984,1.215 15.951,1.203 15.924,1.188 15.849,1.146 15.787,1.073 15.749,0.996 15.707,0.909 15.66,0.743 15.66,0.505 c 0,-0.27 0.06,-0.414 0.147,-0.509 0.106,-0.115 0.233,-0.121 0.292,-0.121 0.166,-0.002 0.261,0.075 0.305,0.125 0.073,0.085 0.109,0.206 0.109,0.314 0,0.048 -0.006,0.181 -0.098,0.293 C 16.342,0.697 16.23,0.745 16.111,0.745 15.974,0.747 15.882,0.68 15.843,0.647 L 15.791,0.591 c 0.01,0.22 0.046,0.351 0.108,0.431 0.054,0.072 0.121,0.108 0.212,0.108 0.09,0 0.142,-0.036 0.169,-0.061 L 16.317,1.028 C 16.348,0.986 16.363,0.932 16.373,0.882 Z M 15.803,0.316 c -0.002,0.196 0.119,0.273 0.194,0.3 0.043,0.014 0.081,0.016 0.097,0.016 0.134,0 0.234,-0.079 0.273,-0.204 0.008,-0.022 0.017,-0.062 0.017,-0.116 0,-0.04 -0.005,-0.227 -0.16,-0.302 -0.051,-0.023 -0.103,-0.025 -0.123,-0.025 -0.181,0 -0.254,0.134 -0.275,0.192 -0.023,0.058 -0.023,0.118 -0.023,0.139" />
        </g>
        <g
           transform="translate(167.5651,4.3888)"
           id="g35672">
          <path
             id="path35674"
             style="fill:#d9f3fb;fill-opacity:1;fill-rule:nonzero;stroke:none"
             d="M 0,0 C 0.611,-1.131 0.929,-2.301 0.859,-3.492 0.509,-9.431 -8.78,-13.877 -20.943,-14.474 v -3.192 c 13.42,0.047 24.034,4.694 24.408,11.05 C 3.603,-4.28 2.314,-2.016 0,0 m -27.117,-14.448 v -2.921 c 0.801,-0.08 1.612,-0.145 2.433,-0.193 0.741,-0.044 1.475,-0.073 2.202,-0.09 v 3.123 c -0.422,-0.009 -0.846,-0.014 -1.273,-0.014 -1.104,0 -2.224,0.031 -3.362,0.095" />
        </g>
        <g
           transform="translate(145.0827,4.0945)"
           id="g35676">
          <path
             id="path35678"
             style="fill:#d9f3fb;fill-opacity:1;fill-rule:nonzero;stroke:none"
             d="m 0,0 v 0 -14.235 -3.122 -1.933 h 1.539 v 1.918 3.192 13.866 H 0 Z" />
        </g>
        <g
           transform="translate(145.0827,23.8261)"
           id="g35680">
          <path
             id="path35682"
             style="fill:#fff8d7;fill-opacity:1;fill-rule:nonzero;stroke:none"
             d="m 0,0 v -19.732 -0.314 h 1.539 18.507 z" />
        </g>
        <g
           transform="translate(192.1667,24.5538)"
           id="g35684">
          <path
             id="path35686"
             style="fill:#fcd205;fill-opacity:1;fill-rule:nonzero;stroke:none"
             d="M 0,0 V -8.497 H 8.497" />
        </g>
        <g
           transform="translate(177.1516,11.106)"
           id="g35688">
          <path
             id="path35690"
             style="fill:#00ade7;fill-opacity:1;fill-rule:nonzero;stroke:none"
             d="m 0,0 c 1.25,-2.314 5.625,-4.215 10.94,-4.528 6.416,-0.378 11.758,1.699 11.931,4.64 0.058,0.99 -0.488,1.949 -1.469,2.804 0.259,-0.48 0.394,-0.976 0.364,-1.48 C 21.593,-1.505 16.251,-3.582 9.835,-3.204 5.58,-2.953 1.931,-1.683 0,0" />
        </g>
        <g
           transform="translate(192.4725,11.1904)"
           id="g35692">
          <path
             id="path35694"
             style="fill:none;stroke:#00ade7;stroke-width:0.65200001;stroke-linecap:butt;stroke-linejoin:miter;stroke-miterlimit:4;stroke-dasharray:none;stroke-opacity:1"
             d="M 0,0 V -4.135" />
        </g>
        <g
           transform="translate(174.873,13.2609)"
           id="g35696">
          <path
             id="path35698"
             style="fill:#00ade7;fill-opacity:1;fill-rule:nonzero;stroke:none"
             d="m 0,0 h 0.22 c 0.055,-0.004 0.11,-0.004 0.165,-0.004 0.164,0 0.309,0.004 0.4,-0.149 0.062,-0.11 0.07,-0.235 0.09,-0.357 C 0.906,-0.738 0.934,-0.844 0.989,-0.945 1,-0.973 1.016,-0.997 1.036,-1.02 H 1.691 C 1.667,-0.989 1.648,-0.957 1.628,-0.922 1.605,-0.883 1.589,-0.839 1.573,-0.796 1.503,-0.612 1.491,-0.459 1.459,-0.267 1.44,-0.149 1.428,-0.039 1.369,0.071 1.354,0.102 1.283,0.224 1.165,0.279 1.142,0.29 1.098,0.306 1.071,0.31 1.118,0.322 1.185,0.333 1.279,0.392 1.55,0.573 1.557,0.902 1.557,0.989 1.561,1.212 1.483,1.357 1.432,1.428 1.342,1.561 1.177,1.707 0.824,1.738 0.624,1.754 0.424,1.754 0.224,1.75 H -0.624 V -1.02 H 0 Z m 0,1.224 h 0.432 c 0.149,0 0.357,0.008 0.459,-0.129 C 0.934,1.036 0.945,0.973 0.945,0.898 0.945,0.722 0.871,0.628 0.812,0.585 0.691,0.506 0.514,0.506 0.385,0.506 0.33,0.502 0.271,0.502 0.216,0.502 H 0 Z M 4.088,0.686 H 2.789 V 1.24 H 4.186 V 1.75 H 2.169 v -2.77 h 2.044 v 0.506 H 2.789 V 0.188 H 4.088 Z M 5.406,1.75 H 4.782 V -1.02 H 5.406 Z M 8.286,0.938 C 8.27,1.087 8.246,1.22 8.172,1.354 8.038,1.597 7.752,1.813 7.168,1.816 6.763,1.816 6.512,1.71 6.371,1.609 6.261,1.526 6.069,1.338 6.069,0.989 6.069,0.416 6.54,0.263 6.712,0.212 6.803,0.184 6.897,0.165 6.987,0.145 L 7.116,0.118 C 7.309,0.071 7.454,0.035 7.524,0 7.67,-0.071 7.689,-0.177 7.689,-0.243 c 0,-0.189 -0.153,-0.318 -0.494,-0.318 -0.228,0 -0.349,0.055 -0.432,0.118 -0.125,0.09 -0.149,0.184 -0.16,0.337 L 5.979,-0.141 c 0.008,-0.102 0.015,-0.385 0.227,-0.62 0.091,-0.098 0.189,-0.157 0.232,-0.181 0.278,-0.141 0.655,-0.141 0.725,-0.141 0.071,0 0.522,-0.004 0.817,0.196 0.133,0.091 0.349,0.299 0.349,0.707 0,0.266 -0.095,0.412 -0.169,0.498 C 8.015,0.486 7.815,0.581 7.387,0.679 7.132,0.734 6.999,0.757 6.881,0.804 6.728,0.867 6.701,0.957 6.697,1.032 6.701,1.334 7.124,1.314 7.132,1.314 7.273,1.314 7.426,1.295 7.54,1.197 7.638,1.114 7.654,1.012 7.67,0.894 Z M 10.879,0.686 H 9.58 V 1.24 h 1.397 V 1.75 H 8.96 v -2.77 h 2.044 v 0.506 H 9.58 v 0.702 h 1.299 z m 1.879,-1.706 c 0.259,0.004 0.38,0.012 0.502,0.043 0.177,0.051 0.581,0.239 0.581,0.773 0,0.18 -0.055,0.333 -0.173,0.471 -0.09,0.098 -0.169,0.149 -0.29,0.2 0.055,0.023 0.098,0.047 0.149,0.082 0.219,0.165 0.243,0.393 0.243,0.491 0,0.223 -0.094,0.364 -0.149,0.431 C 13.405,1.738 13.04,1.754 12.73,1.75 h -1.149 v -2.77 z m -0.557,2.252 h 0.447 c 0.251,0 0.385,-0.008 0.463,-0.122 0.039,-0.063 0.043,-0.129 0.043,-0.153 0,-0.07 -0.023,-0.121 -0.039,-0.145 C 13.076,0.741 13.009,0.691 12.852,0.683 h -0.651 z m 0,-1.048 h 0.463 c 0.204,-0.004 0.286,0 0.384,-0.051 0.145,-0.074 0.161,-0.223 0.161,-0.278 0,-0.032 -0.004,-0.106 -0.051,-0.185 -0.094,-0.164 -0.247,-0.18 -0.573,-0.18 H 12.201 Z M 16.638,1.75 H 16.014 V 0.337 C 16.01,0.235 16.01,0.129 16.01,0.027 c 0,-0.141 0.004,-0.286 -0.082,-0.412 -0.091,-0.125 -0.255,-0.168 -0.4,-0.168 -0.13,0 -0.22,0.031 -0.271,0.055 -0.075,0.039 -0.173,0.11 -0.204,0.306 -0.016,0.121 -0.016,0.404 -0.012,0.525 V 1.75 H 14.41 V 0.004 c 0,-0.184 0.003,-0.373 0.074,-0.553 0.043,-0.11 0.106,-0.2 0.192,-0.279 0.283,-0.259 0.726,-0.255 0.812,-0.255 0.165,0 0.31,0.02 0.365,0.032 0.232,0.039 0.432,0.109 0.589,0.294 0.113,0.137 0.184,0.302 0.192,0.663 0.004,0.141 0.004,0.282 0.004,0.424 z M 17.917,0 h 0.219 c 0.055,-0.004 0.11,-0.004 0.165,-0.004 0.165,0 0.31,0.004 0.4,-0.149 0.063,-0.11 0.071,-0.235 0.091,-0.357 0.031,-0.228 0.058,-0.334 0.113,-0.435 0.012,-0.028 0.028,-0.052 0.047,-0.075 h 0.656 c -0.024,0.031 -0.044,0.063 -0.063,0.098 -0.024,0.039 -0.04,0.083 -0.055,0.126 -0.071,0.184 -0.083,0.337 -0.114,0.529 -0.019,0.118 -0.031,0.228 -0.09,0.338 -0.016,0.031 -0.087,0.153 -0.204,0.208 -0.024,0.011 -0.067,0.027 -0.094,0.031 0.047,0.012 0.113,0.023 0.208,0.082 0.27,0.181 0.278,0.51 0.278,0.597 0.004,0.223 -0.074,0.368 -0.125,0.439 -0.091,0.133 -0.255,0.279 -0.609,0.31 -0.2,0.016 -0.4,0.016 -0.6,0.012 h -0.847 v -2.77 h 0.624 z m 0,1.224 h 0.431 c 0.149,0 0.357,0.008 0.459,-0.129 0.043,-0.059 0.055,-0.122 0.055,-0.197 0,-0.176 -0.074,-0.27 -0.133,-0.313 C 18.607,0.506 18.431,0.506 18.301,0.506 18.246,0.502 18.187,0.502 18.133,0.502 h -0.216 z m 4.747,-0.816 c -0.012,0.6 -0.279,0.93 -0.467,1.091 -0.153,0.133 -0.42,0.317 -0.903,0.317 -0.553,0 -0.866,-0.247 -1.016,-0.415 -0.341,-0.381 -0.361,-0.879 -0.361,-1.036 0,-0.447 0.161,-0.895 0.522,-1.177 0.247,-0.192 0.526,-0.271 0.832,-0.271 0.165,0 0.569,0.016 0.926,0.326 0.341,0.294 0.474,0.73 0.467,1.165 m -0.655,0.004 c 0.007,-0.267 -0.028,-0.53 -0.212,-0.742 -0.181,-0.208 -0.397,-0.219 -0.503,-0.223 -0.16,0 -0.274,0.051 -0.329,0.078 -0.184,0.098 -0.396,0.361 -0.396,0.836 0,0.471 0.196,0.726 0.368,0.836 0.142,0.086 0.295,0.09 0.35,0.09 0.302,0 0.463,-0.161 0.533,-0.251 0.141,-0.185 0.181,-0.404 0.189,-0.624" />
        </g>
        <path
           id="path35700"
           style="fill:#fcd205;fill-opacity:1;fill-rule:nonzero;stroke:none"
           d="m 165.58,18.046 h -0.573 v -2.032 h 0.573 z m 0,0.738 h -0.573 v -0.522 h 0.573 z m 0.981,0 h -0.573 v -2.77 h 0.573 v 1.016 c 0,0.098 0,0.29 0.043,0.385 0.008,0.019 0.031,0.058 0.074,0.102 0.071,0.062 0.142,0.086 0.236,0.086 0.09,0 0.145,-0.027 0.176,-0.047 0.138,-0.09 0.126,-0.251 0.126,-0.538 v -1.004 h 0.577 v 1.15 c 0,0.255 -0.004,0.38 -0.044,0.502 -0.094,0.282 -0.345,0.427 -0.631,0.427 -0.255,0 -0.428,-0.121 -0.498,-0.184 -0.032,-0.027 -0.048,-0.051 -0.059,-0.071 z m 2.185,-0.738 h -0.565 v -2.032 h 0.592 v 0.663 c 0,0.079 0,0.157 0.004,0.235 0.004,0.232 -0.004,0.326 0.051,0.44 0.079,0.169 0.247,0.196 0.302,0.208 0.04,0.004 0.098,0.004 0.102,0.004 0.067,0 0.11,-0.008 0.138,-0.012 l 0.004,0.526 c -0.016,0.004 -0.055,0.008 -0.098,0.008 -0.036,0 -0.197,0 -0.306,-0.075 -0.028,-0.016 -0.059,-0.039 -0.103,-0.086 -0.074,-0.087 -0.105,-0.173 -0.121,-0.212 z m 3.295,-1.404 c -0.004,-0.008 -0.031,-0.051 -0.055,-0.083 -0.047,-0.054 -0.141,-0.133 -0.321,-0.133 -0.098,0 -0.161,0.024 -0.201,0.039 -0.145,0.075 -0.203,0.228 -0.215,0.275 -0.02,0.055 -0.024,0.098 -0.028,0.121 h 1.424 c 0.004,0.114 0.024,0.632 -0.306,0.973 -0.251,0.259 -0.557,0.271 -0.682,0.271 -0.42,0 -0.647,-0.188 -0.765,-0.314 -0.263,-0.282 -0.275,-0.631 -0.275,-0.761 0,-0.388 0.153,-0.635 0.255,-0.753 0.271,-0.306 0.636,-0.322 0.769,-0.322 0.075,0 0.345,0.008 0.573,0.138 0.204,0.117 0.318,0.298 0.357,0.372 0.031,0.059 0.043,0.11 0.051,0.138 z m -0.816,0.659 c 0.016,0.063 0.02,0.074 0.039,0.11 0.099,0.223 0.295,0.239 0.381,0.239 0.235,0 0.333,-0.145 0.365,-0.231 0.016,-0.04 0.023,-0.083 0.027,-0.118 z m 2.26,0.745 h -0.565 v -2.032 h 0.592 v 0.663 c 0,0.079 0,0.157 0.004,0.235 0.004,0.232 -0.004,0.326 0.051,0.44 0.079,0.169 0.248,0.196 0.303,0.208 0.039,0.004 0.098,0.004 0.101,0.004 0.067,0 0.11,-0.008 0.138,-0.012 l 0.004,0.526 c -0.016,0.004 -0.055,0.008 -0.098,0.008 -0.036,0 -0.197,0 -0.306,-0.075 -0.028,-0.016 -0.059,-0.039 -0.102,-0.086 -0.075,-0.087 -0.106,-0.173 -0.122,-0.212 z m 1.401,0.738 h -0.573 v -2.77 h 0.573 l -0.012,0.208 c 0.086,-0.09 0.231,-0.267 0.553,-0.267 0.141,0 0.29,0.039 0.412,0.114 0.341,0.196 0.404,0.589 0.42,0.698 0.023,0.142 0.023,0.236 0.023,0.298 0,0.373 -0.11,0.585 -0.208,0.718 -0.094,0.126 -0.27,0.318 -0.647,0.318 -0.243,0 -0.404,-0.086 -0.479,-0.145 -0.027,-0.023 -0.035,-0.031 -0.059,-0.055 z m -0.004,-1.766 c -0.004,0.185 0.019,0.401 0.176,0.526 0.039,0.032 0.118,0.083 0.247,0.083 0.157,0 0.236,-0.075 0.279,-0.126 0.094,-0.122 0.117,-0.286 0.117,-0.436 0,-0.439 -0.172,-0.627 -0.411,-0.627 -0.095,0 -0.177,0.027 -0.244,0.086 -0.102,0.09 -0.164,0.224 -0.164,0.494 m 3.523,0.126 c 0,0.263 0,0.384 -0.044,0.514 -0.027,0.094 -0.09,0.184 -0.164,0.247 -0.189,0.165 -0.436,0.2 -0.671,0.2 -0.267,0 -0.542,-0.031 -0.734,-0.247 -0.157,-0.173 -0.168,-0.373 -0.176,-0.455 h 0.533 c 0,0.02 0,0.07 0.032,0.121 0.078,0.142 0.302,0.134 0.321,0.134 0.141,0 0.232,-0.039 0.271,-0.082 0.016,-0.016 0.043,-0.052 0.043,-0.106 0,-0.059 -0.031,-0.087 -0.047,-0.099 -0.055,-0.039 -0.137,-0.047 -0.267,-0.07 l -0.165,-0.024 c -0.207,-0.039 -0.474,-0.074 -0.647,-0.223 -0.172,-0.145 -0.188,-0.377 -0.188,-0.444 0,-0.278 0.157,-0.517 0.428,-0.612 0.125,-0.043 0.227,-0.043 0.278,-0.043 0.259,0 0.435,0.083 0.64,0.239 l 0.027,-0.18 h 0.608 c -0.094,0.149 -0.078,0.424 -0.078,0.589 z m -0.573,-0.471 c -0.012,-0.02 -0.039,-0.07 -0.083,-0.114 -0.141,-0.133 -0.333,-0.149 -0.392,-0.149 -0.129,0 -0.208,0.059 -0.239,0.102 -0.028,0.043 -0.032,0.098 -0.032,0.114 0,0.055 0.012,0.125 0.114,0.185 0.083,0.05 0.216,0.074 0.232,0.078 0.235,0.047 0.259,0.039 0.4,0.098 z m 2.813,0.667 c -0.008,0.083 -0.02,0.149 -0.051,0.228 -0.094,0.235 -0.298,0.419 -0.534,0.494 -0.133,0.039 -0.267,0.043 -0.318,0.043 -0.655,0 -1.043,-0.443 -1.043,-1.079 0,-0.129 0.012,-0.592 0.373,-0.875 0.247,-0.192 0.521,-0.196 0.627,-0.196 0.114,0 0.404,0.004 0.655,0.216 0.24,0.208 0.295,0.498 0.31,0.596 l -0.561,0.028 c -0.023,-0.2 -0.141,-0.283 -0.219,-0.314 -0.067,-0.031 -0.13,-0.035 -0.157,-0.035 -0.13,0 -0.208,0.051 -0.248,0.082 -0.101,0.082 -0.18,0.231 -0.18,0.514 0,0.059 -0.016,0.588 0.432,0.588 0.18,0 0.266,-0.094 0.306,-0.164 0.019,-0.036 0.035,-0.067 0.051,-0.149 z m 0.784,1.444 h -0.572 v -2.77 h 0.572 v 1.016 c 0,0.098 0,0.29 0.044,0.385 0.007,0.019 0.031,0.058 0.074,0.102 0.071,0.062 0.141,0.086 0.235,0.086 0.091,0 0.146,-0.027 0.177,-0.047 0.137,-0.09 0.126,-0.251 0.126,-0.538 v -1.004 h 0.576 v 1.15 c 0,0.255 -0.004,0.38 -0.043,0.502 -0.094,0.282 -0.345,0.427 -0.632,0.427 -0.254,0 -0.427,-0.121 -0.498,-0.184 -0.031,-0.027 -0.047,-0.051 -0.059,-0.071 z m 2.947,-2.142 c -0.004,-0.008 -0.032,-0.051 -0.055,-0.083 -0.047,-0.054 -0.142,-0.133 -0.322,-0.133 -0.098,0 -0.161,0.024 -0.2,0.039 -0.145,0.075 -0.204,0.228 -0.216,0.275 -0.019,0.055 -0.023,0.098 -0.027,0.121 h 1.424 c 0.004,0.114 0.023,0.632 -0.306,0.973 -0.251,0.259 -0.557,0.271 -0.683,0.271 -0.42,0 -0.647,-0.188 -0.765,-0.314 -0.263,-0.282 -0.274,-0.631 -0.274,-0.761 0,-0.388 0.153,-0.635 0.255,-0.753 0.27,-0.306 0.635,-0.322 0.768,-0.322 0.075,0 0.346,0.008 0.573,0.138 0.204,0.117 0.318,0.298 0.357,0.372 0.032,0.059 0.043,0.11 0.051,0.138 z m -0.816,0.659 c 0.015,0.063 0.019,0.074 0.039,0.11 0.098,0.223 0.294,0.239 0.381,0.239 0.235,0 0.333,-0.145 0.364,-0.231 0.016,-0.04 0.024,-0.083 0.028,-0.118 z m 2.259,0.745 h -0.565 v -2.032 h 0.593 v 0.663 c 0,0.079 0,0.157 0.004,0.235 0.004,0.232 -0.004,0.326 0.051,0.44 0.078,0.169 0.247,0.196 0.302,0.208 0.039,0.004 0.098,0.004 0.102,0.004 0.067,0 0.11,-0.008 0.137,-0.012 l 0.004,0.526 c -0.016,0.004 -0.055,0.008 -0.098,0.008 -0.035,0 -0.196,0 -0.306,-0.075 -0.028,-0.016 -0.059,-0.039 -0.102,-0.086 -0.075,-0.087 -0.106,-0.173 -0.122,-0.212 z" />
        <g
           transform="translate(191.1697,15.993)"
           id="g35702">
          <path
             id="path35704"
             style="fill:#fcd205;fill-opacity:1;fill-rule:nonzero;stroke:none"
             d="M 0,0 C 0.231,0 0.418,0.187 0.418,0.418 0.418,0.649 0.231,0.836 0,0.836 -0.231,0.836 -0.418,0.649 -0.418,0.418 -0.418,0.187 -0.231,0 0,0" />
        </g>
        <g
           transform="translate(189.6031,15.993)"
           id="g35706">
          <path
             id="path35708"
             style="fill:#fcd205;fill-opacity:1;fill-rule:nonzero;stroke:none"
             d="M 0,0 C 0.231,0 0.418,0.187 0.418,0.418 0.418,0.649 0.231,0.836 0,0.836 -0.231,0.836 -0.418,0.649 -0.418,0.418 -0.418,0.187 -0.231,0 0,0" />
        </g>
        <g
           transform="translate(141.0908,27.0097)"
           id="g35710">
          <path
             id="path35712"
             style="fill:none;stroke:#ffffff;stroke-width:0.32100001;stroke-linecap:butt;stroke-linejoin:miter;stroke-miterlimit:10;stroke-dasharray:none;stroke-opacity:1"
             d="m 0,0 h -3.851 m 68.784,0 h 3.851 M 0,-40.022 h -3.851 m 68.784,0 h 3.851 M 1.54,1.54 v 3.851 m 0,-46.954 v -3.85 M 63.393,1.54 v 3.851 m 0,-46.954 v -3.85" />
        </g>
        <g
           transform="translate(141.0908,27.0097)"
           id="g35714">
          <path
             id="path35716"
             style="fill:none;stroke:#231f20;stroke-width:0.064;stroke-linecap:butt;stroke-linejoin:miter;stroke-miterlimit:10;stroke-dasharray:none;stroke-opacity:1"
             d="m 0,0 h -3.851 m 68.784,0 h 3.851 M 0,-40.022 h -3.851 m 68.784,0 h 3.851 M 1.54,1.54 v 3.851 m 0,-46.954 v -3.85 M 63.393,1.54 v 3.851 m 0,-46.954 v -3.85" />
        </g>
      </g>
    </g>
  </g>
</svg>
