<svg width="26" height="26" fill="#000000" version="1.1" viewBox="0 0 26 26" xmlns="http://www.w3.org/2000/svg">
	<path d="m24.688 0.40039c-0.23296 1.8788e-4 -0.46595 0.088994-0.64453 0.26758l-3.7344 3.7344c-1.6922-1.0984-3.9771-0.90749-5.4609 0.57617l-1.6973 1.6953-1.3223-1.3242c-0.35717-0.35717-0.9319-0.35522-1.2891 0.0019531-0.35717 0.35717-0.35912 0.93189-0.001953 1.2891l8.8223 8.8223c0.35717 0.35717 0.93385 0.35717 1.291 0 0.35717-0.35717 0.35717-0.93385 0-1.291l-1.3242-1.3223 1.6973-1.6953c1.4839-1.4841 1.6732-3.7707 0.57422-5.4629l3.7344-3.7344c0.35717-0.35717 0.35717-0.93189 0-1.2891-0.17858-0.17858-0.41157-0.26777-0.64453-0.26758z"/>
	<path d="m5.9961 10.27c-0.23296 1.88e-4 -0.46595 0.090947-0.64453 0.26953-0.35717 0.35717-0.35912 0.9319-0.0019531 1.2891l1.3242 1.3223-1.6953 1.6973c-1.4837 1.4839-1.6746 3.7688-0.57617 5.4609l-3.7344 3.7344c-0.35717 0.35717-0.35717 0.93189 0 1.2891s0.93189 0.35717 1.2891 0l3.7344-3.7344c1.6922 1.0989 3.9787 0.9097 5.4629-0.57422l1.6953-1.6973 1.3223 1.3242c0.35717 0.35717 0.93385 0.35717 1.291 0 0.35717-0.35717 0.35717-0.93385 0-1.291l-8.8223-8.8223c-0.17858-0.17858-0.41157-0.26777-0.64453-0.26758z"/>
</svg>
