<svg width="26" height="26" fill="#000000" version="1.1" viewBox="0 0 26 26" xmlns="http://www.w3.org/2000/svg">
	<path d="m23.26 1.78c-0.24542 2.007e-4 -0.49158 0.094579-0.67971 0.28271l-3.9339 3.9339c-1.7827-1.1577-4.191-0.9577-5.7545 0.60553l-1.7865 1.7865-1.3935-1.3955c-0.37627-0.37627-0.98316-0.37426-1.3594 0.0020054-0.37627 0.37627-0.37627 0.98115 0 1.3574l9.2934 9.2934c0.37627 0.37627 0.98316 0.37627 1.3594 0 0.37627-0.37627 0.37627-0.98116 0-1.3574l-1.3935-1.3935 1.7865-1.7865c1.5635-1.5637 1.7638-3.9717 0.60553-5.7545l3.9339-3.9339c0.37627-0.37627 0.37627-0.98316 0-1.3594-0.18814-0.18813-0.43229-0.28091-0.67771-0.28071z"/>
	<path d="m7.6731 8.0718c-0.24542 2.008e-4 -0.48957 0.092573-0.67771 0.28071-0.37627 0.37627-0.37827 0.98316-0.0020054 1.3594l1.3955 1.3935-1.7865 1.7865c-1.5632 1.5635-1.7632 3.9718-0.60553 5.7545l-3.9339 3.9339c-0.37627 0.37627-0.37827 0.98116-2e-3 1.3574 0.37627 0.37627 0.98316 0.37627 1.3594 0l3.9339-3.9339c1.7828 1.1583 4.1908 0.95797 5.7545-0.60553l1.7865-1.7865 1.3935 1.3935c0.37627 0.37627 0.98116 0.37627 1.3574 0 0.37627-0.37627 0.37627-0.98316 0-1.3594l-9.2934-9.2934c-0.18813-0.18814-0.4343-0.28091-0.67971-0.28071z" fill="#000"/>
</svg>
